<svg width="226" height="189" viewBox="0 0 226 189" fill="none" xmlns="http://www.w3.org/2000/svg">
<path d="M100.498 45.3928C105.9 49.8105 115.783 52.7826 123.649 49.7429C129.917 47.3247 132.964 43.4475 135.563 37.1925C138.027 31.2617 137.648 23.98 134.9 18.9409C133.789 16.928 131.407 13.6722 129.2 12.2402C127.088 10.8757 124.191 10.1056 121.645 9.22751C119.046 8.33587 114.822 8.06568 111.41 8.38991C109.677 8.55203 107.958 8.78169 106.55 9.38962C102.664 11.0783 98.2776 14.0775 96.1521 17.2522C95.0961 18.8329 93.1194 22.3454 92.7945 24.4529C91.9416 29.9243 92.9028 35.7605 95.1367 39.354C96.2875 41.2048 98.9817 44.1364 100.498 45.3793V45.3928ZM100.66 28.8165C101.297 24.3718 103.883 20.5351 106.36 18.4411C106.604 18.2384 107.321 17.671 107.863 18.4411C107.998 19.738 106.753 20.5891 106.022 21.4537C104.451 23.3316 103.084 25.25 102.502 28.3166C102.258 29.6001 102.502 31.2077 101.662 32.5046C99.7127 32.302 100.484 29.9918 100.66 28.8165ZM112.06 40.0295C112.209 40.4483 112.385 41.3264 112.06 41.7047C110.11 41.7993 108.757 40.0295 106.699 39.6918C106.807 36.7332 110.706 39.6107 112.06 40.0295ZM109.379 37.179C110.219 36.4495 112.128 36.9493 111.721 38.5164C110.855 39.1649 109.122 38.6515 109.379 37.179ZM113.238 44.204C113.211 44.3931 113.278 44.5012 113.4 44.5417C112.696 46.1359 108.689 45.1497 107.2 44.3796C105.751 43.6231 104.844 42.0695 103.842 41.5291C103.72 40.7996 104.14 40.5969 104.519 40.3537C106.062 40.3267 106.848 42.2046 108.215 42.8665C109.934 43.7041 111.6 42.9611 113.251 44.204H113.238ZM105.182 27.4655C104.275 26.1416 106.279 23.0884 107.701 24.615C107.24 25.9525 106.983 27.479 105.182 27.4655ZM112.222 49.054C107.308 48.7297 103.531 46.6763 101.148 43.8663C101.216 43.3664 101.432 43.0422 101.811 42.8665C103.355 42.9611 104.438 44.7579 106.171 45.7171C107.619 46.5141 109.664 47.068 111.708 47.2302C113.13 47.3382 115.269 46.5817 116.406 48.0678C115.824 49.6619 113.454 49.1485 112.209 49.0675L112.222 49.054ZM122.282 38.0031C122.133 36.0171 123.839 34.5986 124.123 32.3155C124.245 31.3698 123.92 30.4242 124.285 29.3028C124.759 28.9651 124.976 29.0056 125.626 29.1407C126.479 32.1264 125.152 38.2733 122.268 38.0166L122.282 38.0031ZM123.784 45.8657C123.229 44.6633 124.461 43.8257 124.962 43.0151C127.399 39.1244 129.66 33.0315 128.482 26.2767C128.726 26.2767 129.173 25.6552 129.322 26.1146C131.041 27.2494 130.648 30.951 130.5 33.1531C130.324 35.8145 129.308 38.3273 128.157 40.678C127.088 42.853 126.113 46.1224 123.798 45.8657H123.784ZM134.521 26.1146C135.725 27.6141 135.076 30.3566 134.521 32.6397C134.006 34.7337 133.573 37.2735 132.842 38.665C132.219 39.8539 130.621 42.1775 129.146 41.0022C129.078 39.6107 130.527 39.1244 131.163 37.9896C132.639 35.3146 132.964 30.1134 133.505 26.4388C133.857 26.3442 133.979 26.02 134.507 26.1011L134.521 26.1146ZM128.983 14.5638C128.794 14.5368 128.685 14.6043 128.645 14.7259C127.277 14.3071 126.424 13.375 125.463 12.5509C126.181 10.2948 129.836 12.686 128.983 14.5638ZM125.463 13.5641C126.6 14.1585 127.832 15.6986 128.983 17.0766C130.148 18.4681 132.029 20.0758 131 21.4267C129.511 21.3457 128.821 19.7245 127.981 18.7518C126.912 17.4954 126.018 15.8337 124.461 15.0637C123.311 14.5098 121.537 14.9556 120.603 13.7262C120.725 11.9565 124.163 12.8751 125.463 13.5641ZM121.104 18.0898C121.659 17.8737 125.247 20.2649 124.962 21.7645C124.867 22.2373 124.448 22.5615 124.123 22.6021C123.338 22.6831 123.771 22.0752 122.945 21.2646C122.376 20.6972 118.924 18.9545 121.104 18.0898ZM122.282 24.2773C121.131 23.9125 119.235 24.3043 118.924 23.1019C119.357 21.062 124.326 22.4129 122.282 24.2773ZM111.545 23.4397C116.474 21.9401 121.158 25.6688 121.943 28.9651C123.446 35.2741 117.706 40.4078 111.207 37.0033C109.623 36.1657 107.66 34.4095 107.186 32.8154C105.927 28.6544 109.014 24.2097 111.545 23.4397ZM94.7712 31.8156C95.2992 27.425 95.8813 25.0743 97.6143 22.2778C98.4807 20.8863 98.765 19.738 99.794 18.4276C102.326 15.1988 106.929 12.7265 110.029 11.0648C112.371 11.8754 109.528 13.3344 108.526 13.9154C105.873 15.4419 102.894 17.3333 101.148 19.6029C98.3047 23.2911 96.2739 28.884 96.4499 33.5043C96.477 34.3149 97.3841 36.544 95.773 36.6791C94.1213 36.8277 94.5952 33.2612 94.7712 31.8292V31.8156Z" fill="#0CC2FF"/>
<path d="M117.097 34.3418C118.099 33.8419 118.938 31.6669 118.613 29.9917C118.207 27.8707 115.432 26.0334 112.914 26.8034C111.045 27.3843 109.949 29.3702 110.395 31.4913C110.802 33.4907 114.904 35.4361 117.097 34.3418ZM115.256 29.654C115.892 32.8692 112.088 32.6801 111.898 30.6537C111.736 28.9379 114.064 28.0733 115.256 29.654Z" fill="#E7F2FC"/>
<path d="M118.612 56.1054C118.017 56.2 117.502 56.6864 116.934 56.6053C115.769 56.4567 115.742 55.2138 114.754 55.43C110.137 56.4702 103.463 57.578 100.823 61.1175C97.1267 66.1026 99.347 76.1808 99.6448 83.0437C99.8615 87.9747 99.1168 92.0411 101.662 94.5944C102.244 92.4194 103.273 89.5688 103.679 87.0696C103.815 86.2184 103.3 84.7054 104.681 84.5568C106.441 85.8402 105.128 88.4475 104.681 90.2443C104.18 92.2708 103.801 94.4999 103.002 95.9319C103.652 96.9586 104.614 97.6746 105.859 98.1069C106.455 95.5536 107.05 91.6899 107.199 88.3935C107.267 86.7588 106.55 84.2055 108.377 83.7057C109.433 84.4622 109.095 86.0969 109.054 87.3803C108.905 91.4062 108.391 95.9724 107.375 98.931C108.201 99.0661 108.58 99.62 109.555 99.593C110.584 95.9994 110.774 90.7577 111.058 86.5427C111.139 85.2863 110.882 83.2869 112.398 83.0302C113.454 83.8678 112.98 85.7186 112.899 87.0425C112.642 91.6088 112.073 96.3507 111.383 100.093C112.398 100.147 113.251 100.35 114.239 100.431C114.971 96.3237 116.175 90.0552 116.758 86.3671C116.947 85.1917 116.46 83.7462 117.76 83.8543C119.127 83.9758 118.464 86.6237 118.26 87.7045C117.448 91.9736 116.866 96.783 116.081 100.593C117.218 100.458 117.868 100.822 118.937 100.755C120.02 97.1883 121.239 91.4737 121.456 87.5289C121.537 85.9753 120.968 83.2598 122.295 83.1788C123.676 83.0842 123.392 85.9753 123.297 87.3668C122.985 92.2573 121.794 96.7154 120.955 100.593C121.929 100.957 123.568 100.66 124.813 100.755C124.109 99.9848 125.192 99.1877 125.49 98.0799C126.153 95.5401 126.56 89.5553 126.668 87.029C126.736 85.4214 126.275 83.3409 127.507 83.3409C128.942 83.3409 128.387 88.1368 128.347 88.8663C128.117 92.6355 127.209 98.134 126.668 100.917H130.526C130.35 100.471 130.323 99.8902 130.364 99.2418C131.163 95.324 132.246 90.7442 132.72 86.5157C132.855 85.2728 132.354 83.1383 133.898 82.6654C135.373 83.503 134.574 85.5835 134.398 87.0155C133.898 91.2305 133.221 95.1213 132.381 98.904C132.232 99.5525 131.826 100.201 132.043 100.741C133.627 100.647 134.845 100.201 136.565 100.241C137.255 97.0937 138.135 92.5004 138.406 88.6907C138.541 86.8129 137.594 83.8272 139.584 83.1653C140.64 84.3541 140.383 86.8804 140.261 88.5151C139.976 92.3383 138.975 96.5939 138.582 100.066C139.868 100.12 141.019 100.039 142.102 99.9037C142.21 95.7698 143.51 90.1498 143.943 85.8402C144.038 84.8405 143.429 82.9491 145.284 83.1653C146.312 85.5835 145.324 88.6772 144.945 91.3656C144.539 94.2432 144.173 97.0667 143.605 99.566H147.287C147.287 99.0121 147.003 98.7284 147.125 98.0664C148.221 95.1483 148.79 90.6091 148.966 86.6778C149.02 85.3538 148.397 83.0572 149.805 82.4898C151.01 82.7735 150.631 84.2866 150.645 85.3403C150.699 90.8793 149.778 96.2291 148.628 99.566H152.825C153.745 95.3104 154.706 89.9066 155.004 85.1782C155.058 84.2596 154.557 82.5303 155.844 82.3277C157.197 83.0032 156.751 85.1107 156.683 86.5157C156.521 89.758 156.087 92.9463 155.505 95.7292C155.207 97.1613 154.625 98.4582 154.666 99.4039C155.613 99.1742 156.778 99.1607 157.685 98.904C158.443 94.7836 159.215 90.1768 159.865 86.0158C160.068 84.6783 159.81 82.8816 161.042 82.1656C162.302 82.5303 161.977 84.7189 161.882 85.6781C161.476 89.8525 159.905 94.7565 159.54 98.904C160.69 98.6608 162.18 98.7419 163.561 98.7419C164.102 94.9727 165.226 90.2308 165.402 86.0158C165.456 84.908 164.779 82.3682 166.404 82.1656C167.771 82.841 167.148 84.5973 167.081 85.8402C166.783 90.4875 166.106 94.9322 165.402 98.7284C166.702 98.6068 167.5 98.9851 168.759 98.8905C170.167 95.2159 170.384 90.2173 170.939 85.5024C171.088 84.1785 170.831 81.9629 172.279 81.4901C173.715 82.2601 172.929 84.1785 172.78 85.5024C172.252 90.2443 171.887 95.351 170.601 99.0661C171.887 98.9445 172.78 99.2282 173.958 99.2282C175.123 94.9997 176.043 89.9471 176.639 85.1647C176.815 83.7327 176.747 81.6252 178.142 80.9767C179.604 81.7738 178.656 83.7732 178.48 85.1647C177.803 90.2984 176.856 95.1618 175.8 99.3904H178.318C179.563 94.6755 180.931 88.326 181.838 83.4895C182.014 82.5438 181.581 80.639 183.341 80.8146C184.451 82.1385 183.503 83.8948 183.178 85.3403C182.109 89.9741 181.553 95.1618 180.159 99.4039C184.451 99.1202 184.315 94.8646 185.033 90.7037C185.453 88.2314 186.008 85.7321 185.872 83.503C185.994 83.0032 187.064 83.4625 187.05 82.8275C185.994 74.0192 187.077 61.6714 181.513 57.551C180.118 56.5107 177.79 56.3486 175.136 56.5513C166.404 57.2267 156.263 58.1184 146.123 57.3889C141.479 57.0511 136.822 57.0781 132.368 56.7269C127.534 56.3351 122.471 55.4435 118.612 56.0514V56.1054ZM181.35 61.4553C180.714 62.7252 179.428 61.739 179.171 60.7798C177.871 60.3475 176.111 60.3745 175.312 59.4423C176.003 56.943 181.581 59.2667 181.35 61.4553ZM103.855 65.4676C103.896 66.724 103.828 67.9129 102.677 67.6427C101.337 67.332 102.312 64.6165 102.677 63.9545C104.573 60.6042 108.025 57.8347 112.75 56.9295C114.172 56.6593 118.328 56.3216 117.272 58.6047C114.605 58.6047 111.748 58.7804 109.555 59.7801C106.888 60.9824 105.439 63.4682 103.855 65.4676ZM170.953 59.4423C171.115 59.4423 171.088 59.2397 171.115 59.1046C171.846 58.7533 172.929 58.9154 173.132 59.6044C173.227 60.5906 171.9 60.8743 171.115 60.442C171.115 60.0503 170.831 59.9422 170.953 59.4423ZM169.436 71.4929C168.137 73.1141 162.857 72.3305 159.878 72.3305C155.817 72.3305 152.161 72.4521 149.643 72.1684C147.829 69.7772 146.055 64.4814 150.32 63.7924C155.248 62.9954 165.226 64.1437 169.612 64.1302C170.262 66.0485 170.547 70.1285 169.45 71.4929H169.436ZM129.01 59.1046C133.505 58.8344 142.278 59.8746 147.301 60.2799C149.426 60.4555 151.904 60.4015 154.016 60.1178C155.126 59.9692 156.141 59.4018 157.197 59.2802C159.337 59.0235 161.435 59.2802 163.412 59.1181C164.332 59.037 165.442 58.3751 166.268 59.2802C165.876 61.8606 161.042 60.6717 158.213 60.9554C156.71 61.104 155.397 61.82 154.192 61.9551C151.268 62.3064 147.328 61.8335 144.634 61.6174C141.858 61.4012 139.259 61.3472 136.24 61.1175C134.033 60.9419 127.913 61.3607 129.024 59.1046H129.01ZM132.869 65.292C134.71 66.2512 133.965 68.9261 134.385 70.9796C133.613 73.8571 128.252 72.6818 123.148 73.1546C121.09 73.3438 112.439 74.8163 110.408 73.3167C109.23 72.4656 108.242 68.7505 108.729 67.1158C109.014 66.1836 109.663 66.1701 110.232 65.2785C114.673 64.8597 119.344 64.9678 124.664 65.1164C127.589 65.1974 131.379 64.4949 132.882 65.2785L132.869 65.292ZM122.633 58.0914C122.809 59.1586 122.363 59.6044 121.293 59.4288C120.359 58.5372 121.74 57.1457 122.633 58.0914Z" fill="#0CC2FF"/>
<path d="M91.6037 71.6694C91.4413 76.7355 92.1588 80.937 92.4431 85.5708H96.1256C96.2881 80.4371 95.7195 76.0465 95.2862 71.5073C94.0948 71.6018 92.5108 71.3046 91.6037 71.6694Z" fill="#E7F2FC"/>
<path d="M186.55 93.5952C187.146 92.8387 187.484 90.0827 187.051 89.4072C187.051 90.8528 186.293 92.4334 186.55 93.5952Z" fill="#E7F2FC"/>
<path d="M171.779 34.5172C173.891 32.6123 173.16 27.4381 170.777 26.3168C165.375 25.1685 165.037 30.4643 166.756 33.6796C168.124 34.5983 169.613 34.6658 171.793 34.5172H171.779ZM168.76 28.8296C171.495 27.7759 171.562 31.6937 169.762 32.0179C168.002 32.3286 166.729 29.6132 168.76 28.8296Z" fill="#E7F2FC"/>
<path d="M154.667 114.183C158.417 121.83 160.475 131.151 163.724 139.284C162.086 130.543 160.177 122.073 158.525 113.346C157.171 113.562 156.061 114.008 154.667 114.183Z" fill="#E7F2FC"/>
<path d="M151.659 68.9941C156.574 68.886 161.949 69.2102 166.592 68.8319C166.498 68.1159 166.714 67.7241 166.755 67.1567H151.321C151.267 67.9403 151.456 68.4807 151.659 69.0076V68.9941Z" fill="#E7F2FC"/>
<path d="M157.022 102.471C148.98 103.43 139.381 102.836 131.867 104.309C131.813 106.267 131.935 108.037 132.368 109.496C141.29 109.929 151.281 111.847 158.863 109.834C158.024 107.605 157.685 104.876 157.022 102.471ZM151.66 107.659C146.99 108.186 139.774 108.199 136.064 106.821C136.037 106.416 136.037 106.011 136.226 105.822C139.679 105.295 144.011 106.686 148.804 106.321C152.08 106.078 155.005 105.173 157.184 105.984C157.076 108.267 153.786 107.416 151.647 107.659H151.66Z" fill="#E7F2FC"/>
<path d="M173.958 53.2546C178.859 52.39 183.909 48.918 186.536 45.7162C188.255 43.6222 190.259 40.6501 191.071 38.3535C192.181 35.1787 192.222 30.4098 191.91 26.8027C191.45 21.6285 188.715 17.373 185.872 14.9277C182.122 11.6989 176.693 9.24016 169.937 9.74002C169.829 9.74002 169.707 9.74002 169.599 9.74002C161.543 9.74002 156.168 12.3609 152.824 16.765C150.794 19.4535 147.72 25.5193 147.287 29.4911C146.949 32.6389 147.571 38.7858 148.289 41.204C149.507 45.3109 154.341 50.2014 157.847 51.9171C162.545 54.2138 168.746 54.1733 173.945 53.2546H173.958ZM172.78 51.7415C171.67 52.1063 167.92 53.1465 168.082 51.4038C168.177 50.4716 168.99 50.8499 170.262 50.5662C172.009 50.1744 173.972 48.6748 175.799 48.7289C176.368 48.7424 176.883 48.5397 176.977 49.3908C177.086 50.4176 174.324 51.2282 172.78 51.7415ZM179.32 45.7162C177.221 46.9186 174.716 48.1615 171.765 48.3911C169.937 48.5397 164.847 49.0396 164.725 47.7156C164.576 46.108 170.56 46.7159 172.103 46.5403C176.165 46.108 180.308 42.8522 181.838 41.6903C182.23 41.3931 182.88 41.0689 183.34 41.8525C183.002 43.6087 180.958 44.7705 179.32 45.7027V45.7162ZM170.262 42.5279C174.121 42.2442 176.842 40.4204 179.658 39.0154C180.24 38.7317 180.931 39.3532 180.998 39.6909C181.215 40.7041 176.26 43.1089 175.461 43.3655C174.513 43.6898 172.875 44.014 171.603 44.2031C169.463 44.5139 166.16 44.9732 165.564 43.2034C166.729 41.947 168.651 42.663 170.262 42.5279ZM167.081 39.0154C168.895 40.0692 172.902 38.7858 174.121 40.0151C173.715 42.3928 165.307 41.8795 167.081 39.0154ZM184.857 15.4141C185.75 14.7386 187.158 17.1703 187.537 18.089C188.417 20.2235 189.69 25.3302 189.893 27.1269C190.083 28.8427 189.92 30.4773 189.054 30.4773C187.903 30.4773 188.052 26.5595 187.537 24.6141C187.023 22.6282 186.36 20.183 185.859 18.9266C185.547 18.143 183.625 16.3327 184.857 15.4141ZM179.32 14.2387C180.538 13.3066 182.65 16.1436 183.34 17.2514C185.155 20.1289 186.035 23.5199 187.199 27.1269C187.646 28.5184 189.013 31.8553 187.7 32.1525C186.414 32.4497 186.116 29.7748 185.683 28.4779C184.41 24.6006 182.677 18.8996 180.822 16.765C180.511 16.4003 178.074 15.1979 179.306 14.2522L179.32 14.2387ZM177.302 17.2514C180.47 17.7783 181.31 21.3448 182.677 24.452C183.571 26.492 184.776 28.7886 184.017 30.4773C182.393 30.9096 182.596 29.1804 182.339 28.3023C181.364 24.9384 179.401 20.1965 176.639 18.4267C176.639 17.8053 176.91 17.4675 177.302 17.2514ZM176.124 22.1013C176.571 22.1013 177.086 22.0338 177.302 22.2635C177.194 24.6412 179.32 26.2758 178.304 28.4644C177.045 28.667 176.693 27.951 176.801 26.7892C176.07 25.8705 175.285 23.5199 176.124 22.1013ZM162.369 27.9645C162.748 25.8705 164.833 23.6144 167.568 23.1146C169.003 22.8579 170.601 22.7903 171.765 23.1146C177.14 24.6412 178.223 35.557 173.105 37.678C172.307 38.0022 169.044 38.5021 168.069 38.3399C167.23 38.2049 164.238 36.1379 163.709 35.3273C162.599 33.6251 161.977 30.0585 162.369 27.9645ZM160.69 23.1146C160.257 24.4655 160.311 26.3164 159.35 27.1269C156.981 27.0594 158.673 21.3718 160.69 23.1146ZM150.631 37.5159C148.37 37.1781 149.128 33.5981 149.291 31.4906C149.819 24.5331 152.933 17.2649 156.845 15.0898C157.225 15.0358 157.468 15.1304 157.509 15.4276C157.617 16.9542 156.101 17.8593 155.329 18.9401C152.933 22.304 151.227 27.0324 150.97 32.6659C150.888 34.3276 151.484 36.4351 150.631 37.5159ZM154.652 32.9901C153.028 32.3417 153.556 29.3695 153.813 27.3026C154.178 24.4115 155.505 19.8993 156.832 19.1022C157.441 18.7374 158.253 18.5753 158.673 19.4399C158.646 20.3586 157.766 20.7639 157.333 21.615C156.426 23.4118 155.654 26.1272 155.492 28.4779C155.397 29.8424 156.087 32.3146 154.652 33.0036V32.9901Z" fill="#0CC2FF"/>
<path d="M191.247 85.2321C191.924 82.4761 192.086 79.504 191.924 75.8564C191.87 74.681 191.058 70.5201 192.763 70.6687C194.09 70.7767 193.549 74.4108 193.603 75.5186C193.765 79.0582 193.752 83.1381 193.102 86.0562C194.022 86.0832 194.496 86.5695 195.444 86.556C195.634 82.8409 196.676 78.5043 196.947 74.6675C197.055 73.249 196.297 71.0199 197.624 70.3174C199.099 70.7092 198.842 72.7627 198.802 74.0055C198.639 78.4232 197.285 82.9219 197.285 87.0559C197.895 87.5557 198.707 87.88 199.627 88.0556C199.979 84.9484 200.345 82.1789 200.805 78.6799C201.022 77.0452 200.968 69.5609 202.322 69.4798C203.73 69.3852 203.242 72.1142 203.161 73.6678C202.877 79.0581 201.699 83.6244 201.482 88.5689C202.443 88.5554 203.351 89.3255 204 89.0688C204.501 84.2188 205.002 78.6664 205.002 73.1679C205.002 71.6819 204.434 69.5338 206.004 68.98C207.317 69.5744 206.844 71.5063 206.844 72.8302C206.844 78.896 206.167 84.2864 205.842 89.5687C206.83 89.6497 207.507 90.028 208.522 90.0685C209.199 85.5293 210.418 79.9903 210.702 74.8431C210.81 72.8572 210.188 69.9256 211.704 68.6422C212.083 68.2099 213.044 69.2231 212.706 69.4798C212.421 77.1803 211.447 84.1783 210.188 90.9061C211.027 90.9602 211.514 91.3654 212.205 91.5681C214.831 79.612 212.625 64.7649 211.027 53.4033C202.89 56.6186 195.16 60.2257 188.715 65.1162C190.408 70.7092 189.555 77.491 190.394 83.5298C190.462 83.9757 190.394 85.151 191.234 85.205L191.247 85.2321ZM207.683 57.6183C207.764 58.2533 207.642 58.6856 207.344 58.9558C206.546 59.0909 206.234 58.7126 206.004 58.2938C205.869 57.3076 207.182 56.9969 207.683 57.6183ZM192.926 64.3191C195.782 63.0222 199.005 60.9012 201.482 59.1314C202.105 59.1314 202.443 59.4016 202.66 59.8069C201.821 61.9279 199.127 62.8736 197.123 63.9949C195.146 65.1027 192.858 67.0346 190.408 66.3321C190.083 64.7109 192.086 64.6974 192.926 64.3191Z" fill="#E7F2FC"/>
<path d="M112.738 70.4938C118.113 70.5613 122.702 69.8318 126.994 68.8186C122.377 68.67 116.975 68.4538 112.399 68.8186C112.088 69.1293 112.602 70.0615 112.738 70.4938Z" fill="#E7F2FC"/>
<path d="M133.531 113.183C132.163 123.977 131.595 136.474 132.028 148.497C133.463 136.487 135.954 125.531 137.227 113.345C135.846 113.453 134.79 113.21 133.544 113.183H133.531Z" fill="#E7F2FC"/>
<path d="M142.089 114.183C144.553 127.355 146.922 140.595 148.804 154.347C149.995 149.416 149.684 143.85 149.982 138.284C150.402 130.017 150.875 122.208 150.984 114.183C147.707 114.332 145.243 113.656 142.089 113.683V114.183Z" fill="#E7F2FC"/>
<path d="M225.297 82.7194C226.299 82.3546 225.934 78.5719 225.974 76.3563C226.001 74.7217 226.055 73.3707 224.458 74.3434C224.566 76.4914 222.82 82.6113 225.297 82.7194Z" fill="#0F3187"/>
<path d="M149.304 9.40277C151.457 7.0521 153.596 3.80978 156.344 2.53987C157.292 2.10756 161.137 2.013 160.866 0.702561C160.582 -0.742972 156.426 0.432368 155.491 0.864676C153.84 1.63473 151.944 3.62064 150.293 5.55252C148.749 7.34931 145.947 8.99749 146.597 11.2401C147.829 11.2401 148.56 10.1863 149.277 9.40277H149.304Z" fill="#0F3187"/>
<path d="M110.218 2.04004C110.611 0.297295 108.878 0.594507 107.862 0.702584C106.075 0.905229 102.704 1.32403 102.325 2.5399C104.302 4.17456 107.822 2.16163 110.205 2.04004H110.218Z" fill="#0F3187"/>
<path d="M89.4222 28.9922C89.517 34.7203 90.221 38.5705 92.9422 42.2181C97.0038 47.649 102.054 51.2155 109.04 53.4311C100.808 54.701 95.9342 59.3213 95.2844 68.1566C92.8339 68.5214 91.0062 67.5217 89.4086 68.4944C87.3778 69.7508 88.1766 75.7085 88.4068 78.7077C88.7317 83.0173 88.7588 86.7189 89.7471 88.5832C91.3176 89.3668 94.4721 88.5562 96.2863 89.0831C97.3829 103.782 112.465 104.525 128.495 104.322C128.576 105.659 128.386 106.727 128.495 107.834C128.684 109.739 129.835 111.198 129.997 112.522C130.228 114.279 129.483 117.021 129.32 119.547C128.332 134.773 128.319 148.512 128.319 164.413C128.319 166.818 127.98 170.438 130.336 170.1C131.73 169.911 131.866 167.317 132.516 165.075C133.125 162.994 133.517 160.86 133.856 159.05C136.239 146.323 137.186 132.868 139.894 121.06C142.412 135.732 145.215 151.916 147.611 166.764C148.004 169.182 148.017 172.14 149.953 172.113C152.323 172.073 152.092 167.263 152.133 164.913C152.431 149.863 153.785 136.245 154.313 122.398C157.359 130.031 159.024 137.718 162.03 145.999C163.519 150.106 165.482 154.389 167.066 159.387C167.608 161.09 168.447 163.589 169.246 166.412C169.747 168.223 170.112 172.856 172.603 172.276C174.81 171.762 173.267 165.994 173.104 165.075C171.602 156.848 169.882 149.877 168.068 142.811C166.186 135.435 164.751 127.694 163.37 120.209C162.883 117.575 161.881 114.684 161.854 112.509C161.854 111.712 162.301 110.104 162.192 109.158C161.921 106.916 160.513 105.024 160.689 102.296C164.074 101.971 167.77 102.296 171.426 102.458C175.203 102.633 179.332 103.498 182.324 102.62C183.543 102.269 185.546 100.755 186.521 99.6071C188.945 96.7701 190.894 93.6358 190.718 88.7318C193.128 89.3938 195.538 90.4205 198.273 91.2446C202.266 92.4605 206.897 92.7847 210.349 94.4194C211.432 94.9328 212.556 96.3243 214.032 95.7569C216.116 94.9598 216.563 86.4217 216.712 84.044C217.294 75.1682 215.913 67.4677 215.372 59.9428C215.101 56.2411 214.736 50.0267 212.19 49.5674C210.349 49.2296 206.91 51.2291 205.475 51.9045C198.706 55.1198 193.29 57.6461 187.699 61.4423C186.562 57.9974 184.666 55.3225 181.661 53.7418C190.353 48.7973 196.756 40.0566 195.24 25.9525C194.996 23.6559 194.225 20.9539 193.236 18.9275C189.635 11.5647 180.835 5.49889 169.422 6.20139C166.2 6.40403 162.206 6.76879 159.187 7.70096C155.274 8.90332 151.591 12.5644 149.29 16.0769C146.961 19.6165 144.402 24.2503 143.929 28.9651C143.712 31.0456 143.956 33.3828 144.091 35.3282C144.849 45.3794 149.114 50.1618 154.99 54.2417C144.863 54.0256 135.196 53.3501 125.462 52.7286C132.272 49.5674 136.618 44.9606 139.217 37.5032C144.05 23.6018 136.333 10.4839 126.301 7.37673C124.907 6.94442 124.311 6.75528 123.12 6.20139C122.47 5.90418 121.888 5.53942 121.279 5.36379C113.629 3.16172 105.452 5.76908 101.147 8.55207C97.1256 11.1459 94.8376 12.7671 92.5902 16.7524C91.3853 18.9005 89.8013 21.5348 89.3951 23.6153C89.0837 25.223 89.368 27.2359 89.3951 28.9651L89.4222 28.9922ZM92.4413 85.5706C92.157 80.9368 91.453 76.7353 91.6019 71.6692C92.5225 71.3044 94.093 71.6016 95.2844 71.507C95.7176 76.0328 96.2863 80.4369 96.1238 85.5706H92.4413ZM211.04 53.4311C212.637 64.7927 214.844 79.6263 212.217 91.5959C211.527 91.3932 211.053 90.9744 210.2 90.9339C211.459 84.2061 212.434 77.2081 212.718 69.5076C213.057 69.2509 212.096 68.2377 211.716 68.67C210.187 69.9399 210.823 72.885 210.715 74.8709C210.43 80.0181 209.225 85.5571 208.535 90.0963C207.519 90.0423 206.829 89.6775 205.854 89.5965C206.193 84.3142 206.856 78.9238 206.856 72.858C206.856 71.5341 207.33 69.6022 206.017 69.0078C204.446 69.5617 205.015 71.7097 205.015 73.1957C205.015 78.6942 204.5 84.2466 204.013 89.0966C203.363 89.3533 202.456 88.5697 201.495 88.5967C201.711 83.6657 202.876 79.086 203.174 73.6956C203.255 72.142 203.742 69.413 202.334 69.5076C200.994 69.5887 201.034 77.0865 200.818 78.7077C200.371 82.2067 199.992 84.9626 199.64 88.0834C198.706 87.8942 197.907 87.5835 197.298 87.0837C197.298 82.9362 198.638 78.4375 198.814 74.0333C198.868 72.7905 199.112 70.7505 197.636 70.3452C196.309 71.0477 197.068 73.2768 196.959 74.6953C196.689 78.5321 195.646 82.8687 195.457 86.5838C194.495 86.5838 194.035 86.111 193.114 86.084C193.764 83.1659 193.778 79.0724 193.615 75.5464C193.561 74.4251 194.103 70.8045 192.776 70.6965C191.07 70.5479 191.882 74.7088 191.937 75.8842C192.099 79.5318 191.937 82.5039 191.26 85.2599C190.434 85.2058 190.488 84.0305 190.42 83.5847C189.594 77.5459 190.447 70.764 188.741 65.171C195.186 60.2805 202.916 56.6599 211.053 53.4581L211.04 53.4311ZM132.028 148.512C131.608 136.488 132.164 123.992 133.531 113.198C134.777 113.238 135.833 113.468 137.213 113.36C135.954 125.546 133.45 136.488 132.015 148.512H132.028ZM149.98 138.299C149.696 143.865 150.007 149.444 148.803 154.362C146.921 140.609 144.551 127.356 142.087 114.198V113.698C145.242 113.671 147.692 114.346 150.982 114.198C150.874 122.222 150.4 130.031 149.98 138.299ZM132.367 109.51C131.933 108.051 131.812 106.281 131.866 104.322C139.38 102.836 148.979 103.444 157.02 102.485C157.684 104.889 158.022 107.618 158.862 109.847C151.267 111.86 141.289 109.955 132.367 109.51ZM163.736 139.298C160.486 131.166 158.428 121.83 154.678 114.198C156.073 114.022 157.183 113.576 158.537 113.36C160.188 122.087 162.097 130.558 163.736 139.298ZM186.548 93.5953C186.291 92.447 187.049 90.8664 187.049 89.4073C187.482 90.0828 187.144 92.8253 186.548 93.5953ZM148.302 41.2049C147.584 38.7732 146.948 32.6263 147.3 29.492C147.733 25.5202 150.806 19.4544 152.837 16.7659C156.168 12.3618 161.542 9.74092 169.611 9.74092C169.72 9.74092 169.842 9.74092 169.95 9.74092C176.706 9.24106 182.148 11.6998 185.885 14.9286C188.728 17.3874 191.463 21.6429 191.923 26.8036C192.234 30.4107 192.194 35.1796 191.084 38.3544C190.285 40.6645 188.281 43.6231 186.548 45.7171C183.922 48.9189 178.872 52.3774 173.971 53.2555C168.772 54.1742 162.558 54.2012 157.873 51.918C154.367 50.2023 149.534 45.3118 148.315 41.2049H148.302ZM132.367 56.768C136.821 57.1328 141.478 57.1058 146.122 57.43C156.262 58.173 166.403 57.2679 175.135 56.5924C177.775 56.3897 180.117 56.5654 181.512 57.5921C187.076 61.7125 185.993 74.0469 187.049 82.8687C187.049 83.4901 185.993 83.0443 185.871 83.5441C186.007 85.7732 185.452 88.2725 185.032 90.7448C184.314 94.9193 184.45 99.1613 180.158 99.445C181.552 95.203 182.108 90.0153 183.177 85.3815C183.516 83.9359 184.463 82.1797 183.34 80.8557C181.579 80.6936 182.013 82.5985 181.837 83.5306C180.916 88.3806 179.562 94.7166 178.317 99.4315H175.799C176.855 95.203 177.802 90.3395 178.479 85.2058C178.655 83.8278 179.603 81.8284 178.141 81.0178C176.733 81.6528 176.814 83.7738 176.638 85.2058C176.042 89.9882 175.108 95.0408 173.957 99.2694C172.779 99.2694 171.899 98.9857 170.6 99.1073C171.886 95.3921 172.251 90.299 172.779 85.5436C172.928 84.2061 173.714 82.3012 172.278 81.5312C170.83 82.004 171.087 84.2196 170.938 85.5436C170.383 90.2584 170.166 95.257 168.758 98.9316C167.499 99.0127 166.701 98.6344 165.401 98.7695C166.118 94.9733 166.782 90.5286 167.08 85.8813C167.161 84.6249 167.77 82.8822 166.403 82.2067C164.765 82.4093 165.441 84.9491 165.401 86.0569C165.211 90.2584 164.101 95.0003 163.56 98.783C162.179 98.783 160.689 98.7155 159.539 98.9451C159.904 94.8112 161.475 89.8937 161.881 85.7192C161.976 84.76 162.301 82.5579 161.041 82.2067C159.809 82.9227 160.08 84.7195 159.864 86.0569C159.214 90.2314 158.442 94.8247 157.684 98.9451C156.777 99.2153 155.612 99.2153 154.665 99.445C154.624 98.4858 155.206 97.1889 155.504 95.7704C156.086 92.9874 156.52 89.7991 156.682 86.5568C156.75 85.1518 157.196 83.0578 155.843 82.3688C154.556 82.5714 155.057 84.2872 155.003 85.2193C154.705 89.9612 153.744 95.3651 152.823 99.6071H148.627C149.777 96.2702 150.698 90.9204 150.644 85.3815C150.644 84.3277 151.009 82.8146 149.804 82.5309C148.396 83.0983 149.019 85.395 148.965 86.7189C148.789 90.6502 148.207 95.1895 147.124 98.1075C147.002 98.783 147.286 99.0667 147.286 99.6071H143.604C144.186 97.1078 144.538 94.2843 144.944 91.4068C145.323 88.7183 146.298 85.6246 145.282 83.2064C143.428 82.9902 144.037 84.8816 143.942 85.8813C143.509 90.1909 142.209 95.8109 142.101 99.9449C141.004 100.093 139.854 100.161 138.581 100.107C138.973 96.635 139.975 92.3795 140.26 88.5562C140.382 86.908 140.639 84.3817 139.583 83.2064C137.606 83.8684 138.54 86.854 138.405 88.7318C138.134 92.5416 137.241 97.1348 136.564 100.283C134.844 100.242 133.612 100.688 132.042 100.782C131.825 100.242 132.231 99.5936 132.38 98.9451C133.206 95.1759 133.897 91.2852 134.397 87.0566C134.56 85.6246 135.372 83.5306 133.897 82.7065C132.353 83.1794 132.854 85.3139 132.719 86.5568C132.245 90.7718 131.162 95.3651 130.363 99.2829C130.322 99.9313 130.363 100.512 130.525 100.958H126.667C127.208 98.1751 128.116 92.6631 128.346 88.9075C128.386 88.1779 128.941 83.382 127.506 83.382C126.274 83.382 126.735 85.449 126.667 87.0702C126.559 89.5965 126.152 95.5677 125.489 98.121C125.191 99.2288 124.108 100.026 124.812 100.796C123.567 100.701 121.928 100.999 120.954 100.634C121.793 96.7566 122.984 92.2984 123.296 87.4079C123.377 86.0299 123.675 83.1253 122.294 83.2199C120.967 83.3145 121.536 86.0299 121.455 87.57C121.238 91.5148 120.019 97.2294 118.936 100.796C117.867 100.864 117.217 100.499 116.08 100.634C116.865 96.8241 117.434 92.0147 118.259 87.7456C118.462 86.6649 119.126 84.0035 117.758 83.8954C116.459 83.7873 116.946 85.2328 116.757 86.4082C116.174 90.0963 114.97 96.3648 114.238 100.472C113.25 100.391 112.397 100.188 111.382 100.134C112.059 96.3918 112.641 91.6499 112.898 87.0837C112.966 85.7597 113.44 83.8954 112.397 83.0713C110.881 83.328 111.138 85.3274 111.057 86.5838C110.773 90.8123 110.569 96.0541 109.554 99.6341C108.579 99.6611 108.2 99.0937 107.374 98.9722C108.39 96.0135 108.904 91.4473 109.053 87.4214C109.107 86.1245 109.446 84.4898 108.376 83.7468C106.549 84.2466 107.28 86.8 107.198 88.4346C107.049 91.731 106.454 95.5812 105.858 98.1481C104.626 97.7158 103.665 96.9997 103.001 95.973C103.8 94.541 104.179 92.3119 104.68 90.2855C105.127 88.4887 106.44 85.8678 104.68 84.5979C103.299 84.7465 103.814 86.2596 103.678 87.1107C103.286 89.6235 102.257 92.4605 101.661 94.6356C99.1294 92.0822 99.874 88.0158 99.6438 83.0848C99.346 76.2219 97.1121 66.1437 100.822 61.1586C103.462 57.6056 110.136 56.5113 114.753 55.4711C115.741 55.2414 115.768 56.4978 116.933 56.6464C117.501 56.714 118.016 56.2411 118.611 56.1466C122.47 55.5251 127.533 56.4303 132.367 56.8221V56.768ZM92.7797 24.4664C93.1047 22.3724 95.0678 18.8464 96.1373 17.2658C98.2629 14.0775 102.649 11.0784 106.535 9.40318C107.943 8.79524 109.676 8.56558 111.395 8.40346C114.807 8.07923 119.031 8.34942 121.631 9.24106C124.176 10.1192 127.073 10.8892 129.185 12.2537C131.405 13.6857 133.788 16.9281 134.885 18.9545C137.633 23.9936 138.012 31.2618 135.548 37.206C132.962 43.461 129.903 47.3383 123.634 49.7565C115.768 52.7962 105.899 49.8241 100.483 45.4064C98.9669 44.1635 96.2592 41.2184 95.1219 39.3811C92.8881 35.801 91.9133 29.9649 92.7797 24.4799V24.4664Z" fill="#0F3187"/>
<path d="M85.9043 38.6921C86.4458 36.7197 85.3763 35.0309 85.2273 33.0045C84.6722 25.1689 86.2427 16.5497 89.7628 11.5782C90.2772 10.8487 91.1979 10.6325 91.2656 9.56525C89.0452 7.44424 86.3781 13.6722 85.2273 16.928C83.6027 21.5753 82.9799 27.2089 83.3861 32.8289C83.535 34.8823 83.7652 38.5029 85.9043 38.6921Z" fill="#0F3187"/>
<path d="M95.7998 36.6919C97.4109 36.5433 96.5039 34.3277 96.4768 33.5172C96.3008 28.8969 98.3316 23.3039 101.175 19.6157C102.921 17.3461 105.9 15.4548 108.553 13.9282C109.555 13.3473 112.412 11.8882 110.056 11.0776C106.956 12.7393 102.353 15.2116 99.8208 18.4404C98.7919 19.7508 98.5076 20.8992 97.6411 22.2906C95.9082 25.0871 95.326 27.4378 94.798 31.8285C94.622 33.2605 94.1481 36.827 95.7998 36.6784V36.6919Z" fill="#0F3187"/>
<path d="M129.009 14.5907C129.862 12.7128 126.207 10.3351 125.489 12.5777C126.45 13.4018 127.303 14.334 128.671 14.7528C128.711 14.6177 128.806 14.5636 129.009 14.5907Z" fill="#0F3187"/>
<path d="M200.304 36.6927C200.128 37.6249 199.235 38.449 200.142 39.3676C202.308 39.4487 202.213 36.2199 202.322 34.342C202.443 32.0724 202.484 29.1408 202.322 26.9793C201.929 21.8321 200.047 13.4831 196.121 12.0781C194.686 13.2805 197.096 14.5504 197.8 15.9284C200.02 20.265 201.469 30.5999 200.318 36.6792L200.304 36.6927Z" fill="#0F3187"/>
<path d="M124.476 15.0897C126.047 15.8463 126.927 17.5214 127.996 18.7778C128.836 19.7505 129.526 21.3717 131.015 21.4528C132.044 20.1018 130.162 18.4941 128.998 17.1026C127.847 15.7247 126.615 14.1846 125.478 13.5901C124.178 12.9011 120.74 11.9825 120.618 13.7523C121.538 14.9816 123.325 14.5358 124.476 15.0897Z" fill="#0F3187"/>
<path d="M180.85 16.7655C182.705 18.9136 184.438 24.6146 185.71 28.4784C186.144 29.7888 186.441 32.4502 187.728 32.153C189.041 31.8558 187.673 28.5189 187.227 27.1274C186.062 23.5339 185.182 20.1294 183.368 17.2519C182.664 16.1441 180.566 13.3071 179.347 14.2392C178.115 15.1849 180.552 16.3873 180.864 16.752L180.85 16.7655Z" fill="#0F3187"/>
<path d="M150.985 32.6659C151.242 27.0323 152.948 22.304 155.345 18.9401C156.116 17.8593 157.633 16.9541 157.524 15.4276C157.484 15.1303 157.24 15.0493 156.861 15.0898C152.948 17.2649 149.848 24.5331 149.306 31.4905C149.144 33.598 148.386 37.1781 150.647 37.5158C151.5 36.4351 150.904 34.3276 150.985 32.6659Z" fill="#0F3187"/>
<path d="M187.552 24.628C188.053 26.5599 187.904 30.4912 189.068 30.4912C189.935 30.4912 190.097 28.8566 189.908 27.1408C189.704 25.344 188.432 20.2374 187.552 18.1029C187.173 17.1842 185.765 14.7525 184.871 15.428C183.653 16.3466 185.575 18.1569 185.873 18.9405C186.36 20.1969 187.024 22.6421 187.552 24.628Z" fill="#0F3187"/>
<path d="M81.3679 24.4658C82.7489 22.6015 81.5575 18.1703 82.7083 16.0898C79.4455 14.239 80.1089 22.0881 80.5286 24.4658H81.3679Z" fill="#0F3187"/>
<path d="M182.354 28.317C182.611 29.1951 182.408 30.9244 184.032 30.4921C184.791 28.8034 183.586 26.4932 182.692 24.4668C181.325 21.3595 180.485 17.793 177.317 17.2661C176.911 17.4823 176.64 17.8065 176.654 18.4415C179.429 20.2112 181.379 24.9531 182.354 28.317Z" fill="#0F3187"/>
<path d="M122.973 21.2917C123.799 22.1022 123.366 22.7102 124.151 22.6291C124.463 22.5886 124.896 22.2643 124.991 21.7915C125.275 20.2919 121.687 17.8872 121.132 18.1169C118.952 18.9815 122.405 20.7242 122.973 21.2917Z" fill="#0F3187"/>
<path d="M102.501 28.3158C103.083 25.2491 104.451 23.3307 106.021 21.4529C106.752 20.5883 107.998 19.7371 107.862 18.4402C107.321 17.6702 106.603 18.2376 106.36 18.4402C103.882 20.5342 101.283 24.371 100.66 28.8156C100.497 29.991 99.7122 32.3011 101.662 32.5038C102.501 31.2068 102.257 29.5992 102.501 28.3158Z" fill="#0F3187"/>
<path d="M157.36 21.6159C157.793 20.7648 158.673 20.3595 158.7 19.4409C158.281 18.5763 157.455 18.7384 156.859 19.1031C155.532 19.9002 154.205 24.4124 153.84 27.3035C153.583 29.3705 153.055 32.3426 154.679 32.991C156.114 32.3156 155.424 29.8298 155.519 28.4653C155.695 26.1146 156.453 23.3992 157.36 21.6024V21.6159Z" fill="#0F3187"/>
<path d="M204.487 33.3414C206.112 33.0712 205.841 29.7343 205.665 26.9783C205.489 24.2359 205.029 19.3994 203.323 21.2907C203.012 22.7633 203.716 24.6006 203.824 26.6406C203.959 28.9777 203.215 31.8688 204.501 33.3414H204.487Z" fill="#0F3187"/>
<path d="M122.296 24.3035C124.353 22.4392 119.371 21.0882 118.938 23.1282C119.236 24.3305 121.145 23.9387 122.296 24.3035Z" fill="#0F3187"/>
<path d="M178.33 28.4788C179.346 26.2902 177.207 24.6555 177.329 22.2778C177.112 22.0482 176.598 22.1157 176.151 22.1157C175.298 23.5342 176.083 25.8849 176.828 26.8036C176.733 27.9654 177.071 28.6814 178.33 28.4788Z" fill="#0F3187"/>
<path d="M159.377 27.1415C160.339 26.3174 160.284 24.4801 160.718 23.1291C158.687 21.3864 157.008 27.0739 159.377 27.1415Z" fill="#0F3187"/>
<path d="M168.095 38.3536C169.056 38.5022 172.333 38.0159 173.131 37.6916C178.249 35.5706 177.166 24.6548 171.791 23.1282C170.627 22.804 169.029 22.8716 167.594 23.1282C164.859 23.6281 162.774 25.8842 162.395 27.9782C162.003 30.0722 162.626 33.6387 163.736 35.341C164.264 36.1515 167.256 38.2185 168.095 38.3536ZM170.776 26.303C173.172 27.4243 173.903 32.5985 171.778 34.5034C169.598 34.652 168.109 34.5844 166.741 33.6658C165.022 30.4505 165.374 25.1547 170.762 26.303H170.776Z" fill="#0F3187"/>
<path d="M107.199 32.8418C107.687 34.4359 109.636 36.1922 111.22 37.0298C117.719 40.4477 123.459 35.3006 121.956 28.9915C121.171 25.6952 116.487 21.9665 111.559 23.4661C109.027 24.2362 105.94 28.6808 107.199 32.8418ZM112.899 26.8165C115.417 26.0329 118.193 27.8702 118.599 30.0048C118.924 31.68 118.098 33.855 117.083 34.3549C114.889 35.4492 110.787 33.5038 110.381 31.5043C109.934 29.3833 111.031 27.3974 112.899 26.8165Z" fill="#0F3187"/>
<path d="M208.523 28.3161C210.676 28.127 209.498 24.2227 208.862 23.2905C206.357 23.3986 208.375 26.8165 208.185 28.1405C208.32 28.181 208.523 28.1405 208.523 28.3026V28.3161Z" fill="#0F3187"/>
<path d="M105.196 27.4792C106.997 27.4927 107.254 25.9661 107.714 24.6287C106.293 23.1021 104.289 26.1417 105.196 27.4792Z" fill="#0F3187"/>
<path d="M129.348 26.1417C129.2 25.6959 128.766 26.3174 128.509 26.3038C129.687 33.0587 127.426 39.1515 124.989 43.0423C124.488 43.8394 123.27 44.6905 123.811 45.8928C126.14 46.136 127.101 42.8802 128.171 40.7051C129.335 38.3544 130.337 35.8417 130.513 33.1803C130.662 30.9917 131.068 27.2765 129.335 26.1417H129.348Z" fill="#0F3187"/>
<path d="M129.172 41.0421C130.648 42.2039 132.245 39.8803 132.868 38.7049C133.599 37.3135 134.032 34.7736 134.547 32.6796C135.102 30.3965 135.752 27.6405 134.547 26.1545C134.019 26.0734 133.897 26.3977 133.545 26.4922C133.003 30.1669 132.665 35.3681 131.203 38.043C130.58 39.1778 129.118 39.6641 129.185 41.0556L129.172 41.0421Z" fill="#0F3187"/>
<path d="M169.776 32.0044C171.563 31.6937 171.495 27.7624 168.774 28.8161C166.756 29.5997 168.015 32.3016 169.776 32.0044Z" fill="#0F3187"/>
<path d="M115.254 29.6543C114.063 28.0736 111.748 28.9383 111.897 30.654C112.086 32.6804 115.89 32.8696 115.254 29.6543Z" fill="#0F3187"/>
<path d="M125.653 29.1535C125.003 29.0184 124.787 28.9778 124.313 29.3156C123.947 30.4369 124.259 31.3826 124.15 32.3282C123.866 34.6249 122.16 36.0299 122.309 38.0158C125.193 38.2725 126.52 32.1256 125.667 29.14L125.653 29.1535Z" fill="#0F3187"/>
<path d="M111.737 38.5293C112.143 36.9622 110.22 36.4623 109.395 37.1918C109.151 38.6644 110.87 39.1778 111.737 38.5293Z" fill="#0F3187"/>
<path d="M106.7 39.7043C108.771 40.0285 110.111 41.7983 112.061 41.7172C112.386 41.3389 112.21 40.4608 112.061 40.042C110.707 39.6232 106.794 36.7456 106.7 39.7043Z" fill="#0F3187"/>
<path d="M174.134 40.03C172.916 38.8006 168.908 40.0705 167.094 39.0303C165.321 41.9078 173.742 42.4212 174.134 40.03Z" fill="#0F3187"/>
<path d="M171.617 44.2179C172.889 44.0287 174.528 43.7045 175.475 43.3803C176.274 43.1101 181.229 40.7054 181.013 39.7057C180.945 39.3679 180.254 38.7465 179.672 39.0302C176.87 40.4352 174.135 42.259 170.277 42.5427C168.665 42.6643 166.743 41.9618 165.579 43.2182C166.174 45.0014 169.478 44.5286 171.617 44.2179Z" fill="#0F3187"/>
<path d="M104.52 40.3665C104.154 40.6097 103.735 40.8123 103.843 41.5418C104.831 42.0687 105.752 43.6223 107.201 44.3924C108.69 45.1759 112.697 46.1486 113.401 44.5545C113.266 44.514 113.212 44.4059 113.239 44.2168C111.601 42.9739 109.922 43.7169 108.202 42.8793C106.849 42.2173 106.05 40.3395 104.506 40.3665H104.52Z" fill="#0F3187"/>
<path d="M181.851 41.7044C180.321 42.8662 176.178 46.122 172.117 46.5543C170.573 46.7164 164.589 46.122 164.738 47.7297C164.86 49.0536 169.95 48.5402 171.778 48.4051C174.716 48.162 177.234 46.9326 179.333 45.7302C180.971 44.7981 183.015 43.6362 183.354 41.88C182.893 41.0964 182.244 41.4071 181.851 41.7179V41.7044Z" fill="#0F3187"/>
<path d="M111.735 47.2303C109.691 47.0682 107.646 46.5278 106.198 45.7172C104.465 44.7581 103.368 42.9613 101.838 42.8667C101.459 43.0423 101.229 43.3801 101.175 43.8664C103.558 46.6764 107.321 48.7299 112.249 49.0541C113.495 49.1352 115.864 49.6485 116.446 48.0544C115.323 46.5683 113.17 47.3249 111.748 47.2168L111.735 47.2303Z" fill="#0F3187"/>
<path d="M175.813 48.7436C173.999 48.6896 172.022 50.1892 170.276 50.581C169.003 50.8647 168.191 50.4864 168.096 51.4186C167.92 53.1613 171.684 52.1211 172.794 51.7563C174.337 51.2429 177.099 50.4324 176.991 49.4056C176.896 48.541 176.381 48.7572 175.813 48.7436Z" fill="#0F3187"/>
<path d="M95.9617 57.4426C96.6251 56.7131 97.1125 55.808 97.6405 54.9298C96.7199 53.0385 94.5266 55.1055 94.7974 56.9428C95.2036 57.1049 95.2442 57.6183 95.9753 57.4426H95.9617Z" fill="#0F3187"/>
<path d="M117.273 58.6186C118.329 56.3354 114.159 56.6732 112.751 56.9434C108.026 57.8485 104.587 60.618 102.678 63.9684C102.313 64.6169 101.338 67.3323 102.678 67.6565C103.829 67.9267 103.897 66.7379 103.856 65.4815C105.44 63.4821 106.889 60.9963 109.556 59.7939C111.749 58.8077 114.606 58.6321 117.273 58.6186Z" fill="#0F3187"/>
<path d="M207.345 58.9425C207.629 58.6724 207.765 58.24 207.684 57.6051C207.196 56.9701 205.869 57.2809 206.005 58.2806C206.248 58.7129 206.546 59.0776 207.345 58.9425Z" fill="#0F3187"/>
<path d="M121.294 59.4558C122.363 59.6314 122.81 59.1856 122.634 58.1184C121.741 57.1862 120.36 58.5642 121.294 59.4558Z" fill="#0F3187"/>
<path d="M181.351 61.4559C181.581 59.2673 176.003 56.9437 175.312 59.443C176.111 60.3751 177.871 60.3481 179.171 60.7804C179.428 61.7396 180.714 62.7258 181.351 61.4559Z" fill="#0F3187"/>
<path d="M136.226 61.1183C139.245 61.348 141.831 61.402 144.62 61.6182C147.314 61.8208 151.267 62.3072 154.178 61.9559C155.383 61.8073 156.696 61.1048 158.199 60.9562C161.029 60.6725 165.848 61.8614 166.254 59.281C165.429 58.3759 164.318 59.0379 163.398 59.1189C161.435 59.281 159.323 59.0243 157.184 59.281C156.128 59.4026 155.112 59.97 154.002 60.1186C151.904 60.4023 149.412 60.4564 147.287 60.2807C142.278 59.8755 133.491 58.8352 128.996 59.1054C127.886 61.3615 134.005 60.9427 136.212 61.1183H136.226Z" fill="#0F3187"/>
<path d="M173.133 59.6176C172.944 58.9286 171.861 58.7664 171.116 59.1177C171.076 59.2528 171.116 59.4419 170.954 59.4554C170.832 59.9688 171.13 60.0634 171.116 60.4552C171.901 60.8875 173.228 60.6038 173.133 59.6176Z" fill="#0F3187"/>
<path d="M197.11 63.9679C199.114 62.8466 201.808 61.901 202.648 59.7799C202.431 59.3747 202.106 59.091 201.47 59.1045C198.992 60.8742 195.77 62.9952 192.913 64.2922C192.074 64.6704 190.07 64.684 190.395 66.3051C192.846 67.0076 195.134 65.0622 197.11 63.9679Z" fill="#0F3187"/>
<path d="M219.259 89.4077C219.259 89.4077 218.704 92.2042 220.099 92.0826C221.047 92.0015 221.493 87.1516 221.602 85.7196C222.008 80.5589 221.683 71.1832 220.424 66.3062C219.963 64.4959 219.855 61.078 218.244 61.4562C218 61.5508 217.838 61.7129 217.743 61.9561C218.203 65.2389 219.544 68.846 219.747 73.007C220.072 79.2619 219.639 84.5712 219.246 89.4077H219.259Z" fill="#0F3187"/>
<path d="M150.307 63.8062C146.043 64.4952 147.816 69.791 149.631 72.1822C152.135 72.4659 155.804 72.3443 159.866 72.3443C162.858 72.3443 168.124 73.1279 169.424 71.5067C170.521 70.1423 170.236 66.0623 169.586 64.144C165.2 64.1575 155.236 63.0092 150.294 63.8062H150.307ZM166.581 68.8318C161.937 69.2236 156.576 68.8859 151.648 68.9939C151.445 68.4671 151.255 67.9267 151.309 67.1431H166.743C166.689 67.7105 166.473 68.1023 166.581 68.8183V68.8318Z" fill="#0F3187"/>
<path d="M97.8039 106.983C99.239 107.929 103.382 109.766 104.682 107.645C103.991 106.375 102.583 106.848 101.662 106.645C98.2643 105.889 95.8002 102.741 94.7848 99.6066C94.3787 98.3637 94.3245 96.1481 92.7676 97.4315C93.0384 101.39 95.1098 105.213 97.8039 106.969V106.983Z" fill="#0F3187"/>
<path d="M186.712 104.645C188.486 103.875 190.286 102.038 190.408 100.119C188.445 99.3359 187.822 102.132 185.886 102.97C183.977 103.794 181.067 102.848 180.187 104.645C181.879 105.875 184.993 105.388 186.726 104.645H186.712Z" fill="#0F3187"/>
<path d="M94.282 107.997C94.5257 107.794 94.7559 107.578 94.9454 107.321C94.4986 106.619 92.9146 103.673 92.0888 103.646C89.6924 103.552 92.4678 108.145 94.2685 107.997H94.282Z" fill="#0F3187"/>
<path d="M148.803 106.322C144.011 106.687 139.678 105.295 136.226 105.822C136.037 106.011 136.037 106.416 136.064 106.822C139.773 108.2 146.989 108.186 151.66 107.659C153.799 107.416 157.089 108.267 157.197 105.984C155.018 105.16 152.093 106.065 148.817 106.322H148.803Z" fill="#0F3187"/>
<path d="M123.135 158.874C124.462 159.157 124.706 155.645 124.814 154.186C125.126 149.903 124.76 143.662 124.313 140.298C124.178 139.285 124.367 137.704 123.311 137.623H123.149C122.905 137.718 122.743 137.88 122.648 138.123C122.052 139.379 122.837 141.433 122.986 143.486C123.257 147.134 123.203 151.93 122.986 154.699C122.919 155.591 121.741 158.59 123.149 158.887L123.135 158.874Z" fill="#0F3187"/>
<path d="M173.459 145.324C173.08 143.851 173.215 141.392 171.78 141.635C171.536 141.784 171.252 141.892 171.279 142.311C172.836 151.349 176.762 160.144 181.176 166.75C181.785 167.655 182.313 169.263 183.694 169.263C184.804 168.114 183.383 166.871 182.855 166.088C180.756 162.913 179.294 160.022 177.656 156.212C176.275 153.011 174.474 149.282 173.459 145.337V145.324Z" fill="#0F3187"/>
<path d="M120.29 152.011C122.063 151.754 121.034 148.269 120.791 146.985C118.313 146.566 119.22 151.187 120.114 151.835C120.208 151.835 120.317 151.862 120.276 151.997L120.29 152.011Z" fill="#0F3187"/>
<path d="M110.218 65.3053C109.636 66.2104 108.986 66.2104 108.716 67.1426C108.228 68.7772 109.217 72.4789 110.394 73.3435C112.439 74.8296 121.076 73.3705 123.134 73.1814C128.238 72.7085 133.6 73.8839 134.371 71.0063C133.952 68.9393 134.696 66.2779 132.855 65.3188C131.352 64.5352 127.561 65.2377 124.637 65.1566C119.316 65.008 114.646 64.9135 110.205 65.3188L110.218 65.3053ZM126.993 68.8178C122.701 69.831 118.111 70.5605 112.737 70.493C112.601 70.0606 112.1 69.1285 112.398 68.8178C116.974 68.453 122.363 68.6692 126.993 68.8178Z" fill="#0F3187"/>
<path d="M52.2324 124.276C54.8183 126.113 57.2011 129.099 59.8411 130.639C61.019 126.802 56.0909 124.816 53.654 121.885C52.2189 122.493 52.774 123.492 52.246 124.276H52.2324Z" fill="#E7F2FC"/>
<path d="M82.1667 96.7834C79.5266 94.4057 76.2232 91.2039 73.5561 88.6641C72.7573 87.9076 70.9432 86.8133 72.0804 85.6109C73.3395 85.4623 74.206 86.7863 75.086 87.6239C77.9426 90.3663 80.9482 93.4871 83.8319 95.6486C85.1722 94.4868 86.9999 94.2166 87.9476 93.0548C84.0756 89.9475 80.19 86.8403 76.4398 83.0576C73.2447 84.6382 70.1579 85.6109 66.8545 87.759C70.5505 92.4603 74.5715 95.446 78.43 99.3232C79.6756 98.4721 80.9211 97.621 82.1667 96.7699V96.7834Z" fill="#E7F2FC"/>
<path d="M55.3613 121.128C57.0401 122.479 58.6241 124.33 60.3435 125.438C60.6549 123.425 57.5546 122.331 56.3361 120.466C56.0112 120.682 55.6863 120.912 55.3749 121.128H55.3613Z" fill="#E7F2FC"/>
<path d="M52.2184 130.774C55.075 134.152 57.9723 137.34 61.0185 139.772C60.5988 139.137 60.7071 138.583 60.3957 137.961C58.8117 136.881 57.6744 135.8 55.8332 133.976C54.9667 133.125 51.3384 130.315 52.3808 129.234C53.3285 128.261 55.3593 130.95 56.131 131.747C57.5932 133.26 58.4461 134.408 59.7458 134.962C60.1114 132.314 57.5661 131.463 55.4541 129.572C53.9378 128.207 52.7058 126.87 51.4602 125.803C50.7021 127.302 50.9457 128.991 50.9051 130.639C51.4196 130.274 51.8393 130.41 52.2048 130.761L52.2184 130.774Z" fill="#E7F2FC"/>
<path d="M101.065 130.327C101.864 131.948 102.622 133.88 103.854 134.704C105.574 135.853 106.711 134.15 108.769 132.975C109.324 131.3 109.459 129.098 107.97 127.639C105.858 125.599 101.485 127.301 101.065 130.314V130.327Z" fill="#E7F2FC"/>
<path d="M93.1747 90.8939C89.5734 87.3949 85.9451 84.0581 82.222 81.1265C80.8952 81.3156 79.5142 81.8425 78.1333 82.2883C81.9918 85.8954 85.9045 89.2728 89.8848 92.326C91.0356 91.5154 92.1051 91.2047 93.1747 90.8939Z" fill="#E7F2FC"/>
<path d="M56.2944 137.92C54.372 135.935 52.6932 133.908 50.8384 132.314C51.6778 134.732 54.0064 136.84 55.983 138.947C58.0138 141.109 60.1936 143.189 62.0484 145.148C62.116 145.229 62.1837 145.297 62.2785 145.202C61.8453 142.203 58.6908 140.42 56.2944 137.934V137.92Z" fill="#E7F2FC"/>
<path d="M57.8638 119.425C58.8927 120.384 59.8269 121.843 60.9641 122.181C60.937 121.695 61.262 121.276 61.465 120.83C60.558 120.546 59.8269 119.277 58.9739 118.682C58.6084 118.939 58.2293 119.182 57.8638 119.439V119.425Z" fill="#E7F2FC"/>
<path d="M9.87008 110.171C11.1562 113.819 11.5083 119.466 15.3532 122.046C13.336 118.102 11.1427 114.103 10.195 110.361C10.0732 110.158 9.80239 109.847 9.87008 110.185V110.171Z" fill="#E7F2FC"/>
<path d="M9.47852 103.943C11.929 110.144 14.1223 116.305 17.6423 122.708C17.886 123.114 17.4528 123.397 17.5611 123.776C18.6442 124.181 19.7002 124.816 20.878 124.762C19.2534 119.115 15.3949 113.049 15.0564 107.645C13.0798 107.037 11.2792 105.497 9.47852 103.943Z" fill="#E7F2FC"/>
<path d="M91.6973 117.237C94.0395 115.629 94.5946 111.455 92.6857 109.469C90.7361 107.442 85.605 109.077 83.9668 112.171C84.2376 114.021 85.8487 117.115 87.6628 118.169C89.0709 117.561 90.4112 118.142 91.6973 117.237Z" fill="#E5228D"/>
<path d="M60.7212 117.669C61.2221 118.21 61.6418 119.182 62.2781 119.047C62.2781 118.007 63.3612 117.169 63.3206 116.116C62.4541 116.643 61.5335 117.494 60.7347 117.669H60.7212Z" fill="#E7F2FC"/>
<path d="M48.6719 113.13C50.0935 111.644 53.5052 117.858 54.7237 117.521C55.6984 116.859 56.6597 116.197 57.6345 115.535C55.712 114.049 53.4917 111.09 51.5692 109.334C50.7027 108.537 48.8615 107.726 50.1882 106.429C51.9618 106.767 53.3563 108.672 54.7914 110.185C56.2806 111.766 57.8782 113.279 59.2591 114.643C60.4776 114.13 61.8044 113.076 63.0905 112.225C61.6825 110.996 59.9496 109.645 58.2031 108.05C56.7951 106.767 53.8978 105.024 54.7914 103.079C56.9169 103.403 58.0406 105.808 59.6788 107.253C61.3034 108.685 63.3207 109.672 64.6069 111.185C65.8795 110.347 66.746 109.428 67.1792 108.415C65.5816 107.402 63.8352 105.997 62.0616 104.2C61.1004 103.227 57.0117 99.3502 58.5551 98.4856C59.3945 97.9992 60.3287 99.4988 60.992 100.269C63.5373 103.2 66.2315 105.267 68.0457 107.618C69.5755 106.497 71.1731 105.983 72.1072 104.646C69.1558 101.566 65.7576 99.1746 62.6573 95.8782C61.8314 95.0001 59.6382 93.1493 60.8025 92.2711C61.6825 91.6092 63.1853 93.6897 63.9976 94.5543C67.2198 97.9992 70.7128 100.377 73.1633 103.498C74.7202 102.511 75.2617 101.323 76.8999 100.35C73.1362 96.3916 68.5737 93.3249 65.365 88.5425C60.2474 90.9067 55.2517 93.4735 50.2018 97.2562C46.5328 100.012 43.9605 101.904 40.9684 103.957C38.8293 105.43 36.9475 107.145 34.8761 108.104C31.9653 109.469 28.0932 109.969 25.0741 110.117C22.1498 110.266 19.4014 109.05 16.6802 108.537C18.359 114.076 21.2156 119.831 22.9215 125.37C31.7622 128.842 42.038 124.681 52.7064 118.439C51.9483 117.142 47.3993 114.386 48.6448 113.103L48.6719 113.13ZM25.3855 115.008C26.2926 118.075 27.3215 121.574 28.6077 124.762C28.6889 124.978 28.5129 125.154 28.6077 125.37C28.2421 125.626 27.8495 125.964 27.5517 125.897C25.6563 122.911 24.6003 118.899 23.5307 115.265C23.2735 114.413 22.5018 112.752 23.7338 112.292C25.0741 112.319 25.1147 114.089 25.3855 115.008Z" fill="#E7F2FC"/>
<path d="M51.7329 137.191C54.7114 143.271 59.9373 148.242 64.229 151.579C63.1866 147.769 60.0321 145.784 57.2973 142.933C55.3748 140.934 53.7908 138.718 51.7465 137.191H51.7329Z" fill="#E7F2FC"/>
<path d="M129.659 133.53C128.996 133.692 128.4 134.354 127.628 134.719C126.87 135.07 126.288 135.002 125.679 135.435C119.871 139.555 128.062 147.593 133.017 146.445C136.063 144.702 138.107 142.446 137.403 139.812C136.496 136.407 132.096 132.935 129.659 133.543V133.53Z" fill="#E5228D"/>
<path d="M87.1084 143.473C88.0425 142.365 88.5841 139.555 88.1644 138.488C86.8512 135.07 82.0991 132.179 80.4203 132.814C79.4591 133.192 77.9021 135.151 77.3471 136.327C76.819 137.448 76.5212 140.15 76.6972 141.015C77.3064 143.96 79.7028 144.973 81.3003 145.378C83.1957 145.851 85.0776 145.837 87.0949 143.446L87.1084 143.473Z" fill="#E5228D"/>
<path d="M113.751 104.038C112.194 105.619 113.128 109.888 115.281 111.914C117.054 113.589 119.992 114.008 121.752 112.765C125.028 110.455 124.514 104.997 120.804 103.065C118.99 102.133 115.294 102.471 113.737 104.024L113.751 104.038Z" fill="#E5228D"/>
<path d="M99.2536 160.333C100.797 162.994 104.832 163.616 107.092 162.886C108.027 162.589 108.622 162.008 109.448 161.279C112.278 158.793 111.993 155.51 108.419 152.659C104.236 149.309 96.3428 155.348 99.2536 160.333Z" fill="#E5228D"/>
<path d="M121.172 94.1089C115.864 91.5151 109.813 91.5016 104.032 92.2176C103.152 92.3257 102.299 92.2176 101.473 92.3392C92.8082 93.5145 84.0893 98.4861 75.4381 106.227C75.3975 106.322 76.8462 106.484 76.6566 107.416C76.1692 108.429 75.1538 108.902 74.5446 109.672C69.955 115.441 68.4116 120.777 67.8971 126.964C67.8024 128.072 68.3574 129.693 67.1931 130.68C65.406 130.031 66.0965 127.721 66.2183 126.275C66.5974 121.574 67.7076 115.941 70.483 112.023C71.4172 110.699 72.7304 109.834 73.2313 108.321C70.3205 110.294 68.9802 113.901 67.6399 116.184C64.9322 120.818 63.7408 124.019 63.3211 128.856C63.1586 130.653 62.766 132.693 62.9149 134.192C63.1586 136.624 64.7156 139.974 65.3383 143.081C65.9476 146.108 66.7599 149.431 68.1002 152.146C69.8738 155.753 72.2024 160.117 74.8289 163.17C75.7495 164.238 77.1575 165.035 78.1188 166.196C80.8942 169.547 83.4395 170.29 86.8783 171.573C89.5454 172.573 92.1042 174.019 94.5953 174.829C97.7633 175.856 101.96 175.883 106.184 175.437C110.219 175.018 114.741 175.086 118.437 173.167C120.901 171.897 123.27 169.844 126.154 168.115C128.266 166.845 131.055 165.994 132.53 164.373C133.343 163.481 132.91 162.806 133.573 162.035C134.277 161.238 135.482 160.901 136.348 160.144C138.081 158.618 139.774 156.24 141.073 154.294C142.481 152.173 143.267 150.106 143.835 147.945C145 143.527 146.908 139.029 147.369 135.003C147.531 133.611 147.45 131.72 147.369 129.937C147.274 128.153 147.342 125.992 147.03 124.695C145.785 119.588 142.82 113.401 138.474 108.024C133.397 101.755 127.129 96.9595 121.199 94.0549L121.172 94.1089ZM92.5374 96.1894C95.3534 94.8925 98.3996 94.163 101.717 93.5821C104.803 93.0417 108.053 92.15 110.584 92.0014C113.157 91.8393 116.663 92.7039 118.288 94.6493C117.652 96.4326 116.528 94.825 115.309 94.4467C111.139 93.1633 106.739 94.5953 101.73 95.3924C98.5215 95.9057 95.4482 96.6352 92.7811 98.0403C91.6845 98.6212 90.6962 100.472 88.9226 99.2426C89.1934 97.5269 91.2106 96.7839 92.5239 96.1894H92.5374ZM115.797 125.141C116.406 126.438 116.406 128.923 116.42 130.193C116.433 133.003 116.189 135.165 113.427 137.705C112.94 138.15 111.085 139.785 110.056 140.204C109.217 140.555 107.782 140.339 106.753 140.434C102.556 140.812 97.4113 138.691 95.7325 132.341C95.015 129.666 95.9356 125.749 97.5873 123.776C99.2526 121.804 102.245 119.912 104.424 119.521C108.554 118.791 113.739 120.75 115.797 125.154V125.141ZM83.7644 101.769C84.0487 101.242 84.1841 101.147 84.7798 100.877C86.0389 101.215 85.7139 102.877 84.4278 102.742C83.9675 102.242 84.0622 102.377 83.7644 101.769ZM85.7139 106.106C89.6537 104.214 95.7867 104.849 97.2218 111.037C97.7768 113.468 96.8698 116.913 94.338 119.291C92.1989 121.29 91.1835 121.371 89.1121 121.439C87.2844 121.493 85.6733 121.412 84.1164 119.777C79.1883 114.617 79.6622 109.037 85.7275 106.106H85.7139ZM73.2584 140.744C73.0147 137.975 73.8541 135.448 75.5464 133.098C76.4265 131.882 77.5231 130.112 79.7434 129.423C83.3718 128.288 89.938 132.801 91.4679 137.651C92.2125 140.015 91.2512 144.122 89.4235 145.932C86.4044 148.904 83.4259 149.499 80.5693 148.728C77.6991 147.958 73.7052 145.689 73.272 140.731L73.2584 140.744ZM67.667 135.84C68.5064 136.813 68.1002 137.732 67.139 138.029C65.8257 137.745 66.2183 135.557 67.667 135.84ZM98.711 174.073C95.5971 173.829 91.7928 171.965 88.2051 170.29C86.445 169.466 84.9016 168.534 83.1416 167.048C80.0683 164.454 77.7668 163.373 74.7747 159.563C72.6492 156.875 68.899 151.201 67.7076 147.756C66.8817 145.378 67.6534 146.81 67.0171 144.378C66.6787 143.081 65.9882 141.595 66.8817 141.217C68.3575 140.609 68.8178 144.851 69.1156 145.972C70.3882 150.714 75.3434 158.212 79.256 161.968C80.5151 163.184 82.397 164.319 83.9945 165.629C87.3927 168.399 90.29 169.128 93.9183 170.628C96.071 171.519 98.0747 172.451 100.119 172.276C101.297 172.168 102.989 170.722 104.208 172.316C103.477 173.802 100.133 174.167 98.6839 174.059L98.711 174.073ZM116.717 170.114C116.338 166.467 120.278 170.992 116.717 170.114V170.114ZM114.389 160.766C113.874 161.846 112.954 162.724 111.911 163.67C108.093 167.129 102.339 166.994 99.3202 165.156C91.6168 160.468 95.6784 150.822 103.179 148.539C105.44 147.85 108.432 148.391 110.314 149.755C114.226 152.619 115.932 157.523 114.389 160.752V160.766ZM140.288 151.417C139.53 152.66 138.894 154.146 138.095 155.335C135.942 158.604 132.097 161.846 129.024 164.346C128.198 165.021 127.264 165.643 126.397 166.142C124.719 167.088 121.293 168.885 120.82 166.305C122.024 165.453 123.392 165.737 124.813 165.008C125.897 164.44 126.953 163.657 127.86 162.927C130.852 160.536 133.79 158.023 135.82 155.267C137.851 152.511 138.745 149.363 141.033 147.459C142.59 148.485 140.992 150.269 140.288 151.417ZM140.843 139.474C141.195 141.474 140.315 144.892 138.095 147.026C136.958 148.121 135.401 149.336 134.074 149.769C130.134 151.025 122.39 147.58 120.251 141.15C119.696 139.447 120.278 137.002 120.887 135.84C122.498 132.828 126.885 130.207 129.945 130.085C134.575 129.882 140.126 135.462 140.843 139.474ZM143.849 137.029C144.309 136.57 144.444 136.475 145.054 136.408C146.936 137.664 143.713 139.231 143.849 137.029ZM124.475 114.954C120.901 118.143 116.541 117.251 113.306 114.657C108.73 110.996 107.836 103.079 113.373 100.215C116.623 98.5401 121.889 98.8643 124.367 101.445C128.279 105.511 128.428 111.428 124.475 114.954ZM144.214 124.816C144.891 127.356 146.651 131.463 144.485 132.328C143.429 131.787 143.849 130.544 143.659 129.639C142.982 126.329 141.886 121.804 140.099 118.494C138.826 116.157 136.091 114.279 135.604 111.631C137.093 110.537 138.23 112.914 139.029 113.968C141.953 117.859 143.172 120.899 144.228 124.816H144.214Z" fill="#0CC2FF"/>
<path d="M7.3667 94.0415C7.3667 95.6762 9.28918 97.0812 10.4806 97.9998C9.39749 96.9056 8.46333 95.0277 7.3667 94.0415Z" fill="#E7F2FC"/>
<path d="M99.2532 89.3943C95.6519 85.8682 92.0101 82.5854 88.2599 79.8564C86.9602 80.1672 85.7146 80.1401 84.4014 80.4644C88.0162 83.7067 91.6445 86.8409 95.2187 90.3264C96.5997 89.7995 97.8858 89.8536 99.2532 89.3943Z" fill="#E7F2FC"/>
<path d="M6.39111 85.7871C7.94805 88.5296 11.1161 93.5146 13.6207 95.46C13.5801 92.8527 8.34067 88.3134 6.39111 85.7871Z" fill="#E7F2FC"/>
<path d="M124.583 91.3799C124.908 92.5687 125.992 93.1226 126.844 93.4874C126.1 92.7444 125.382 91.8797 124.583 91.3799Z" fill="#E7F2FC"/>
<path d="M113.996 88.6641C110.449 84.4626 107.051 79.383 102.678 79.5586C105.697 82.3551 108.689 85.2462 111.613 88.4615C112.412 88.529 113.184 88.6371 113.982 88.6641H113.996Z" fill="#E7F2FC"/>
<path d="M120.956 90.218C117.233 86.6649 113.659 82.4229 109.543 80.9639C111.993 83.3551 114.39 85.9895 116.705 89.0561C118.14 89.3128 119.548 89.7316 120.956 90.218Z" fill="#E7F2FC"/>
<path d="M109.109 88.3537C105.859 85.1384 102.651 81.6394 99.2795 79.0456C98.386 79.0861 97.5601 78.8159 96.626 79.0321C100.065 81.5043 103.301 85.0168 106.55 88.4888C107.416 88.3942 108.269 88.3672 109.109 88.3672V88.3537Z" fill="#E7F2FC"/>
<path d="M104.222 88.6376C99.8892 84.7062 96.0307 78.3297 90.7642 79.3564C94.3248 82.4636 97.9125 85.4222 101.392 88.9483C102.34 88.8537 103.247 88.9483 104.222 88.6376Z" fill="#E7F2FC"/>
<path d="M12.6861 78.6535C11.1156 77.0053 9.69404 75.4247 8.63803 73.9116C8.3808 74.506 7.79863 75.5058 8.05587 76.3298C9.13896 79.7613 14.1618 84.0844 16.0707 85.665C18.1286 83.1657 15.123 81.1933 12.6861 78.64V78.6535Z" fill="#E7F2FC"/>
<path d="M19.1028 78.5317C16.1108 75.3974 13.1729 71.993 10.4246 67.6294C9.74764 68.5075 9.44979 70.4934 9.26025 71.8714C12.144 75.546 15.1089 78.8154 18.1687 81.6119C18.3853 80.5716 19.157 79.626 19.1164 78.5317H19.1028Z" fill="#E7F2FC"/>
<path d="M17.3316 69.4129C15.4092 66.8461 13.6762 63.9415 12.0787 62.0366C11.835 62.8067 10.7925 64.2387 11.1851 65.4816C12.0516 68.1835 18.848 75.8435 20.3914 76.8432C22.4628 74.398 19.6332 72.4661 17.3316 69.3994V69.4129Z" fill="#E7F2FC"/>
<path d="M22.2459 72.1419C22.5032 71.0747 23.2884 70.0885 23.7893 69.0617C20.5401 64.9548 17.4939 59.7536 14.2446 55.7007C13.8655 57.1192 12.823 58.4026 12.8501 59.8887C15.9505 64.1037 18.8883 69.2238 22.2459 72.1284V72.1419Z" fill="#E7F2FC"/>
<path d="M24.9807 67.2382C25.1973 66.4817 25.9284 65.8062 26.3481 65.0902C24.2632 62.726 22.0699 59.5242 20.1068 56.5656C18.9966 54.9039 16.7492 52.5803 18.3333 51.2969C19.5382 51.3779 19.809 52.7829 20.4047 53.7286C22.3813 56.8898 25.2244 60.7266 27.35 63.5906C28.3383 62.5774 29.1777 61.5237 30.8023 60.632C27.6478 53.4584 23.2884 46.0551 23.681 39.5435C20.2964 44.1232 17.8052 48.8651 15.2329 53.607C18.5093 58.0247 21.5554 63.5906 24.9672 67.2382H24.9807Z" fill="#E7F2FC"/>
<path d="M15.11 87.5436C12.3752 85.3821 9.87059 82.0722 7.33887 78.8569C9.08535 81.6399 12.0909 86.1657 14.8934 88.7055C14.7445 88.2732 15.3266 87.976 15.11 87.5436Z" fill="#E7F2FC"/>
<path d="M13.8505 91.6366C13.9182 91.7177 13.9859 91.7852 14.0806 91.6771C12.6591 88.4213 9.19318 85.206 6.98639 81.9097C6.47192 83.3687 8.09656 84.6251 9.12549 85.922C10.696 87.8944 12.3883 90.0695 13.8369 91.6231L13.8505 91.6366Z" fill="#E7F2FC"/>
<path d="M116.623 181.543C116 181.813 114.876 181.732 113.888 181.989C112.845 182.259 111.884 182.84 111.018 183.137C109.339 183.704 107.024 183.205 105.21 183.245C100.999 183.326 98.4267 183.407 94.866 181.786C93.3903 181.124 91.4408 179.395 89.6401 180.692C90.642 182.232 92.8082 182.907 94.514 183.65C98.0882 185.204 101.067 185.109 104.858 185.109C106.509 185.109 108.364 185.245 109.935 185.109C111.505 184.961 112.723 184.056 114.199 183.623C116.23 183.029 118.829 183.367 120.075 181.232C120.278 180.908 120.224 180.53 119.926 180.124C118.735 179.489 117.597 181.151 116.636 181.556L116.623 181.543Z" fill="#0F3187"/>
<path d="M154.841 126.1C153.867 126.505 154.977 129.882 155.085 130.598C156.114 138.299 153.853 146.148 149.561 152.808C148.275 154.808 147.165 156.848 146.082 158.415C145.825 158.793 144.552 159.806 145.08 160.509C145.703 161.346 146.001 160.914 146.976 160.022C148.587 158.577 149.751 155.848 151.051 153.808C154.733 148.026 156.222 143.216 157.048 136.745C157.197 135.556 157.157 133.057 156.886 131.179C156.777 130.477 156.493 125.397 154.828 126.086L154.841 126.1Z" fill="#0F3187"/>
<path d="M91.4286 184.515C89.5738 185.596 93.0939 187.298 93.7437 187.595C95.3819 188.351 96.5327 188.919 97.9407 188.986C98.3062 189.067 98.4552 188.568 98.6718 188.284C98.5906 188.108 98.3875 187.906 98.5229 187.771C96.9795 186.852 94.8133 186.298 93.1887 185.325C92.6065 184.974 92.0514 184.136 91.4151 184.501L91.4286 184.515Z" fill="#0F3187"/>
<path d="M135.821 155.28C133.79 158.036 130.852 160.549 127.86 162.94C126.953 163.656 125.897 164.453 124.814 165.021C123.406 165.75 122.038 165.467 120.82 166.318C121.294 168.911 124.719 167.115 126.398 166.156C127.264 165.656 128.198 165.034 129.024 164.359C132.097 161.859 135.929 158.604 138.095 155.348C138.894 154.145 139.53 152.659 140.288 151.43C140.992 150.282 142.59 148.512 141.033 147.472C138.745 149.377 137.851 152.524 135.821 155.28Z" fill="#0F3187"/>
<path d="M116.717 170.115C116.338 166.467 120.278 170.993 116.717 170.115V170.115Z" fill="#0F3187"/>
<path d="M100.133 172.302C98.0885 172.477 96.0848 171.545 93.9322 170.654C90.3038 169.154 87.4066 168.424 84.0084 165.655C82.3973 164.345 80.5289 163.21 79.2698 161.994C75.3707 158.238 70.4156 150.74 69.1294 145.998C68.8316 144.864 68.3577 140.635 66.8956 141.243C66.002 141.621 66.6789 143.094 67.0309 144.404C67.6673 146.85 66.8956 145.404 67.7214 147.782C68.8993 151.227 72.663 156.901 74.7886 159.589C77.7806 163.399 80.0822 164.466 83.1554 167.073C84.9154 168.56 86.4589 169.492 88.2189 170.316C91.8066 171.991 95.611 173.855 98.7248 174.099C100.173 174.207 103.518 173.855 104.249 172.356C103.03 170.748 101.338 172.207 100.16 172.315L100.133 172.302Z" fill="#0F3187"/>
<path d="M129.957 130.099C126.898 130.22 122.525 132.841 120.9 135.854C120.277 137.016 119.695 139.461 120.264 141.163C122.403 147.607 130.147 151.039 134.087 149.782C135.4 149.363 136.957 148.134 138.108 147.04C140.328 144.905 141.208 141.474 140.856 139.488C140.138 135.462 134.588 129.896 129.957 130.099ZM137.417 139.812C138.121 142.46 136.077 144.703 133.031 146.445C128.089 147.594 119.885 139.555 125.693 135.435C126.302 135.003 126.871 135.07 127.642 134.719C128.414 134.368 129.01 133.692 129.673 133.53C132.11 132.936 136.51 136.394 137.417 139.799V139.812Z" fill="#0F3187"/>
<path d="M110.313 149.768C108.445 148.404 105.439 147.864 103.178 148.553C95.6643 150.849 91.6163 160.482 99.3198 165.169C102.339 167.007 108.093 167.142 111.911 163.683C112.953 162.738 113.874 161.86 114.388 160.779C115.932 157.537 114.226 152.633 110.313 149.782V149.768ZM109.46 161.292C108.634 162.022 108.039 162.589 107.104 162.9C104.844 163.629 100.809 162.994 99.2656 160.347C96.3683 155.375 104.261 149.323 108.431 152.673C112.005 155.537 112.29 158.806 109.46 161.292Z" fill="#0F3187"/>
<path d="M143.849 137.042C143.714 139.258 146.922 137.677 145.054 136.421C144.458 136.488 144.309 136.583 143.849 137.042Z" fill="#0F3187"/>
<path d="M135.618 111.645C136.105 114.293 138.84 116.17 140.113 118.508C141.913 121.817 143.01 126.357 143.674 129.653C143.863 130.558 143.443 131.788 144.499 132.341C146.666 131.477 144.906 127.37 144.229 124.83C143.186 120.912 141.968 117.859 139.03 113.982C138.231 112.928 137.094 110.55 135.604 111.645H135.618Z" fill="#0F3187"/>
<path d="M51.2171 149.498C50.2424 148.201 49.3353 146.634 48.2793 145.215C47.4805 144.135 46.5869 142.162 44.9894 142.189C44.1229 143.581 46.614 145.891 47.6565 147.269C53.0313 154.429 58.1218 161.184 64.2007 165.791C65.4733 166.75 69.3589 170.573 69.3453 167.966C68.7767 166.763 66.5428 165.345 64.7964 163.967C59.9495 160.171 55.2381 154.834 51.2307 149.498H51.2171Z" fill="#0F3187"/>
<path d="M97.5998 123.763C95.9346 125.735 95.0275 129.653 95.745 132.328C97.4238 138.691 102.568 140.798 106.765 140.42C107.794 140.326 109.229 140.542 110.069 140.19C111.084 139.772 112.939 138.137 113.44 137.691C116.202 135.151 116.446 132.99 116.432 130.18C116.432 128.91 116.432 126.424 115.809 125.127C113.751 120.737 108.566 118.764 104.437 119.494C102.257 119.885 99.2651 121.777 97.5998 123.749V123.763ZM108.783 132.963C106.725 134.138 105.601 135.84 103.868 134.692C102.623 133.868 101.878 131.936 101.079 130.315C101.485 127.302 105.872 125.587 107.984 127.64C109.473 129.086 109.351 131.301 108.783 132.976V132.963Z" fill="#0F3187"/>
<path d="M89.4219 145.958C91.2496 144.148 92.2108 140.041 91.4662 137.677C89.9364 132.827 83.3837 128.314 79.7418 129.449C77.535 130.138 76.4248 131.908 75.5448 133.124C73.8525 135.475 73.0131 138.001 73.2568 140.77C73.69 145.728 77.6975 147.998 80.5541 148.768C83.4107 149.538 86.3892 148.957 89.4084 145.972L89.4219 145.958ZM76.7091 141.041C76.5331 140.162 76.8174 137.461 77.359 136.353C77.9276 135.177 79.471 133.205 80.4323 132.84C82.0975 132.192 86.8495 135.096 88.1763 138.514C88.5825 139.582 88.0545 142.392 87.1203 143.499C85.1031 145.891 83.2212 145.904 81.3258 145.431C79.7147 145.026 77.3319 144.013 76.7227 141.068L76.7091 141.041Z" fill="#0F3187"/>
<path d="M124.379 101.458C121.888 98.8779 116.635 98.5537 113.386 100.229C107.835 103.093 108.742 111.01 113.318 114.671C116.554 117.265 120.913 118.156 124.487 114.968C128.441 111.442 128.305 105.525 124.379 101.458ZM121.766 112.766C120.006 114.009 117.055 113.576 115.295 111.915C113.142 109.888 112.194 105.619 113.765 104.039C115.308 102.485 119.018 102.147 120.832 103.079C124.542 104.998 125.056 110.456 121.78 112.779L121.766 112.766Z" fill="#0F3187"/>
<path d="M124.273 79.032C123.434 78.4646 122.216 76.6948 121.092 77.9512C121.823 80.0452 124.165 80.9909 125.844 82.2203C131.219 86.1381 136.783 90.4747 141.359 96.581C142.226 97.7429 142.889 99.5126 144.189 99.5261C144.283 99.4586 144.378 99.4046 144.473 99.337C144.595 99.1614 144.69 98.9723 144.703 98.7831C144.243 96.9863 141.251 93.3928 139.45 91.4069C134.63 86.0841 129.161 82.3284 124.287 79.0455L124.273 79.032Z" fill="#0F3187"/>
<path d="M49.3089 153.835C47.9957 154.889 50.5274 157.266 51.3533 158.32C53.9392 157.874 50.4191 154.375 49.8099 153.7C49.6339 153.794 49.4308 153.983 49.2954 153.848L49.3089 153.835Z" fill="#0F3187"/>
<path d="M67.6665 135.84C66.2179 135.557 65.8252 137.745 67.1385 138.029C68.0997 137.732 68.5059 136.813 67.6665 135.84Z" fill="#0F3187"/>
<path d="M89.0988 121.452C91.1703 121.384 92.1992 121.303 94.3247 119.304C96.8565 116.926 97.7636 113.481 97.2085 111.049C95.7734 104.848 89.6404 104.227 85.7007 106.118C79.6218 109.036 79.1615 114.629 84.0896 119.79C85.6465 121.425 87.2576 121.506 89.0853 121.452H89.0988ZM83.9677 112.171C85.6059 109.09 90.737 107.456 92.6866 109.469C94.5955 111.455 94.0404 115.616 91.6983 117.237C90.3986 118.128 89.0718 117.561 87.6638 118.169C85.8496 117.115 84.2385 114.021 83.9677 112.171Z" fill="#0F3187"/>
<path d="M136.09 83.5447C136.212 85.1118 138.215 85.8008 139.15 87.1247C141.817 86.4222 137.566 81.8289 136.09 83.5447Z" fill="#0F3187"/>
<path d="M92.7952 98.0541C95.4623 96.6491 98.5355 95.906 101.744 95.4062C106.753 94.6226 111.154 93.1771 115.323 94.4605C116.542 94.8388 117.666 96.4329 118.302 94.6632C116.677 92.7178 113.171 91.8531 110.598 92.0153C108.067 92.1774 104.817 93.069 101.731 93.5959C98.4137 94.1768 95.3675 94.9063 92.5515 96.2033C91.2518 96.7977 89.221 97.5407 88.9502 99.2564C90.7102 100.472 91.7121 98.635 92.8087 98.0541H92.7952Z" fill="#0F3187"/>
<path d="M84.78 100.876C84.1843 101.147 84.049 101.241 83.7646 101.768C84.0625 102.376 83.9677 102.241 84.428 102.741C85.7142 102.889 86.0256 101.214 84.78 100.876Z" fill="#0F3187"/>
<path d="M3.19599 119.993C2.1806 118.237 2.15352 116.075 0.718429 115.197C-1.08221 116.589 0.935046 119.723 1.95044 121.452C2.57322 122.506 3.548 123.911 4.50924 125.181C7.83974 129.599 13.1063 135.124 17.1137 133.814C17.4657 133.638 16.9918 133.314 17.2491 133.111C16.0441 131.922 14.406 132.017 12.9032 131.206C9.35606 129.301 5.53817 124.046 3.19599 119.993Z" fill="#0F3187"/>
<path d="M23.5173 115.264C24.5869 118.898 25.6429 122.911 27.5383 125.896C27.8497 125.964 28.2287 125.626 28.5943 125.369C28.4995 125.153 28.662 124.978 28.5943 124.761C27.2946 121.56 26.2792 118.061 25.3721 115.007C25.1013 114.089 25.0472 112.306 23.7204 112.292C22.4884 112.765 23.2736 114.413 23.5173 115.264Z" fill="#0F3187"/>
<path d="M80.4605 73.209C75.4783 74.8977 69.8733 76.9241 64.8098 80.0178C63.5914 80.7609 62.3323 81.7876 61.0732 82.5712C60.288 83.0575 58.1489 83.5979 58.8258 84.9218C60.0578 86.1242 63.0363 83.1386 64.7963 82.0713C74.6253 76.1541 85.7541 73.182 94.8385 72.547C95.2582 72.6551 95.3529 71.6824 95.1905 71.2906C93.0378 70.6962 90.479 71.1555 88.0286 71.5068C85.6322 71.858 82.8703 72.3984 80.4605 73.2225V73.209Z" fill="#0F3187"/>
<path d="M1.20486 124.789C-0.433308 125.722 3.51997 131.071 5.22583 130.963C5.68614 131.193 5.67261 130.342 5.87568 130.126C4.1969 128.991 2.63996 123.979 1.20486 124.789Z" fill="#0F3187"/>
<path d="M54.6979 86.314C51.2591 86.4761 56.1466 89.7724 54.6979 86.314V86.314Z" fill="#0F3187"/>
<path d="M37.8963 60.8754C38.5461 61.9697 39.3314 63.2261 40.252 63.7259C40.8612 63.4287 40.7258 63.5233 41.2268 63.064C39.6698 60.4566 38.1941 56.6604 36.6236 54.8501C35.0125 56.1065 36.6913 58.849 37.9098 60.8754H37.8963Z" fill="#0F3187"/>
<path d="M7.18994 56.6599C8.05641 57.1192 8.43549 56.5924 8.62503 56.079C10.0195 52.3233 10.7506 48.0137 12.7678 43.7312C14.3654 40.3267 16.0307 38.1517 18.3999 35.031C18.9415 34.3149 20.4036 33.1666 19.7132 31.9102C18.2916 31.4239 17.6824 33.0856 17.046 33.9367C16.2608 34.9769 15.2183 35.9496 14.4196 36.9358C11.3598 40.7861 9.68104 45.5685 8.61149 49.8105C8.02933 52.0801 6.91917 54.3903 7.20348 56.6464L7.18994 56.6599Z" fill="#0F3187"/>
<path d="M7.62475 41.57C7.34044 41.57 7.09675 41.3944 6.82598 41.2998C5.75643 42.1374 5.98658 43.0155 5.64812 44.326C5.41796 45.2446 4.02348 48.8652 6.2032 47.7979C7.51645 47.163 7.77368 42.9885 7.62475 41.5565V41.57Z" fill="#0F3187"/>
<path d="M123.756 83.6386C119.234 80.3827 115.037 79.0183 110.38 77.7484C107.93 77.0864 105.506 76.465 103.096 76.0191C95.799 74.6411 87.2696 75.9246 79.7692 78.1401C76.9803 78.9642 74.3944 80.3287 71.3888 81.6256C68.5999 82.828 65.9057 84.6248 62.9678 85.9487C56.5234 88.8263 50.4717 93.0953 44.2033 97.7156C40.9811 100.093 37.3663 103.079 33.5349 104.984C32.3029 105.605 30.421 105.943 28.8505 106.159C24.64 106.713 21.0388 106.943 17.627 104.889C16.1784 101.417 16.4221 96.2701 17.0719 93.1088C17.7218 89.9341 19.5901 86.381 21.3366 82.7064C23.056 79.0588 24.3693 75.2356 25.8314 72.3445C27.0905 69.8587 29.2025 66.2652 31.1927 64.4414C32.4789 63.266 34.1306 62.8878 34.5097 61.5773C34.9971 59.9021 32.2352 55.2413 31.0573 52.9852C28.2278 47.5408 27.5779 44.1499 27.0499 39.7052C26.901 38.5434 27.429 36.2737 25.7367 35.1254C24.4505 34.2473 21.9052 36.1927 20.5107 37.8814C19.0757 39.5971 17.9519 42.0424 16.6252 44.3795C15.339 46.6221 13.8768 48.8512 12.8344 51.0128C10.6276 55.606 9.03001 60.0372 7.59491 64.7116C6.17336 69.3319 4.54873 73.9116 3.88533 78.586C2.97825 84.9895 1.54315 91.0689 4.41334 97.4725C4.21026 102.16 4.86011 108.01 6.3629 113.373C6.87737 115.197 7.54076 117.372 8.43431 119.061C11.7107 125.275 15.9212 127.059 20.2129 128.261C22.176 128.815 24.1932 129.639 25.9533 129.828C33.1152 130.585 40.751 128.923 47.9941 124.938C47.6827 127.248 47.1953 129.571 47.2766 131.909C47.3578 133.894 48.0347 137.839 48.8471 139.555C50.2009 142.365 52.5837 145.08 54.425 147.715C56.2662 150.336 58.4189 152.646 60.3684 154.618C62.3721 156.645 64.2675 158.806 66.3525 160.684C68.3697 162.508 70.8202 164.007 72.5938 165.953C74.1913 167.696 75.0172 168.993 76.5064 170.181C80.0806 173.032 83.3976 173.748 87.3644 175.356C89.7066 176.301 91.9675 177.72 93.8223 178.26C98.8045 179.719 105.046 179.206 110.434 178.49C112.451 178.233 114.591 178.22 116.242 177.774C119.018 177.031 122.592 174.667 125.543 172.654C130.16 169.506 135.873 167.493 137.538 163.467C142.087 159.239 145.648 154.902 147.016 149.714C148.369 144.581 150.414 139.785 150.806 134.773C150.942 133.016 150.752 131.084 150.644 129.207C150.549 127.288 150.671 125.289 150.4 123.492C150.238 122.438 149.588 121.56 149.304 120.398C149.033 119.345 149.168 118.237 148.803 117.291C146.352 110.942 141.316 103.147 136.293 96.6349C132.286 91.4336 127.858 86.6242 123.77 83.6791L123.756 83.6386ZM15.2442 53.6066C17.8166 48.8647 20.3077 44.1229 23.6923 39.5431C23.2997 46.0547 27.6591 53.458 30.8136 60.6316C29.189 61.5233 28.3496 62.577 27.3613 63.5903C25.2222 60.7397 22.3926 56.903 20.416 53.7282C19.8203 52.7825 19.5495 51.364 18.3446 51.2965C16.7741 52.5934 19.0215 54.9035 20.1181 56.5652C22.0812 59.5238 24.2745 62.7256 26.3594 65.0898C25.9397 65.8193 25.2086 66.4813 24.992 67.2379C21.5803 63.5903 18.5341 58.0108 15.2578 53.6066H15.2442ZM14.2424 55.7006C17.5052 59.7535 20.5378 64.9547 23.7871 69.0617C23.2862 70.0884 22.5009 71.0611 22.2437 72.1419C18.8861 69.2373 15.9482 64.1171 12.8479 59.9021C12.8208 58.4161 13.8633 57.1191 14.2424 55.7141V55.7006ZM11.1826 65.4816C10.7765 64.2387 11.8325 62.8067 12.0762 62.0366C13.6737 63.928 15.3932 66.8461 17.3292 69.4129C19.6307 72.4661 22.4603 74.4115 20.3889 76.8567C18.8455 75.857 12.0491 68.197 11.1826 65.4951V65.4816ZM10.4109 67.6296C13.1728 71.9933 16.1107 75.3977 19.0892 78.5319C19.1298 79.6262 18.3581 80.5584 18.1415 81.6121C15.0953 78.8156 12.1303 75.5463 9.23308 71.8717C9.42263 70.4937 9.72047 68.5078 10.3974 67.6296H10.4109ZM8.04169 76.3434C7.77091 75.5058 8.36661 74.5061 8.62385 73.9251C9.6934 75.4247 11.1014 77.0053 12.6719 78.667C15.0953 81.2203 18.1144 83.1928 16.0565 85.692C14.1611 84.1114 9.12478 79.7883 8.04169 76.3569V76.3434ZM7.32414 78.8562C9.85586 82.0715 12.374 85.3813 15.0953 87.5429C15.3119 87.9887 14.7298 88.2724 14.8787 88.7047C12.0762 86.1649 9.07062 81.6391 7.32414 78.8562ZM6.98567 81.9228C9.19247 85.2192 12.6584 88.421 14.0799 91.6903C13.9716 91.7984 13.9174 91.7309 13.8497 91.6498C12.4011 90.0962 10.7088 87.9211 9.13831 85.9487C8.09584 84.6518 6.48475 83.3819 6.99921 81.9364L6.98567 81.9228ZM6.37644 85.7866C8.326 88.3129 13.5654 92.8522 13.6061 95.4595C11.1014 93.5141 7.93338 88.5291 6.37644 85.7866ZM124.568 91.3931C125.354 91.893 126.085 92.7576 126.829 93.5006C125.99 93.1359 124.907 92.582 124.568 91.3931ZM120.927 90.2178C119.519 89.7449 118.124 89.3126 116.675 89.0559C114.36 85.9893 111.964 83.3549 109.514 80.9637C113.629 82.4092 117.203 86.6512 120.927 90.2178ZM113.968 88.6777C113.169 88.6507 112.384 88.5291 111.599 88.475C108.674 85.2597 105.669 82.3687 102.663 79.5722C107.036 79.4101 110.434 84.4762 113.981 88.6777H113.968ZM99.2513 79.0453C102.622 81.6391 105.831 85.1381 109.08 88.3534C108.241 88.3534 107.388 88.3805 106.522 88.475C103.272 85.003 100.037 81.5041 96.5977 79.0183C97.5184 78.8156 98.3577 79.0723 99.2513 79.0318V79.0453ZM104.193 88.6507C103.205 88.9614 102.297 88.8668 101.363 88.9614C97.8839 85.4489 94.2962 82.4767 90.7355 79.3695C96.002 78.3428 99.8605 84.7194 104.193 88.6507ZM88.2309 79.8694C91.9811 82.5983 95.6229 85.8812 99.2242 89.4072C97.8433 89.8665 96.5706 89.799 95.1897 90.3394C91.6291 86.8539 87.9872 83.7331 84.3724 80.4773C85.6856 80.1666 86.9176 80.1936 88.2309 79.8694ZM82.1926 81.1393C85.9022 84.0709 89.5441 87.4078 93.1454 90.9068C92.0758 91.204 91.0198 91.5147 89.8555 92.3388C85.8887 89.2856 81.976 85.9082 78.104 82.3011C79.4714 81.8553 80.8659 81.3284 82.1926 81.1393ZM76.3981 83.0577C80.1483 86.8404 84.0339 89.9341 87.9059 93.0548C86.9582 94.2166 85.1441 94.5003 83.7902 95.6487C80.9065 93.4871 77.8874 90.3529 75.0443 87.6239C74.1778 86.7863 73.2978 85.4759 72.0387 85.611C70.9015 86.8133 72.7156 87.8941 73.5144 88.6642C76.1815 91.204 79.4714 94.4193 82.125 96.7835C80.8794 97.6346 79.6339 98.4857 78.3883 99.3368C74.5298 95.446 70.5088 92.4739 66.8128 87.7725C70.1162 85.6245 73.203 84.6383 76.3981 83.0712V83.0577ZM7.33768 94.041C8.43431 95.0272 9.36847 96.9051 10.4516 97.9993C9.26016 97.0807 7.33768 95.6757 7.33768 94.041ZM15.3255 122.033C11.4805 119.466 11.1285 113.819 9.84232 110.158C9.77463 109.834 10.0454 110.131 10.1672 110.334C11.115 114.089 13.3082 118.075 15.3255 122.019V122.033ZM20.8492 124.762C19.6714 124.816 18.6289 124.195 17.5323 123.776C17.4239 123.384 17.8572 123.114 17.6135 122.708C14.0934 116.305 11.9002 110.158 9.4497 103.944C11.2503 105.497 13.051 107.037 15.0276 107.645C15.3661 113.049 19.211 119.115 20.8492 124.762ZM22.9071 125.383C21.2148 119.844 18.3581 114.089 16.6658 108.55C19.3735 109.064 22.1354 110.266 25.0597 110.131C28.0788 109.982 31.9373 109.483 34.8617 108.118C36.9195 107.159 38.8149 105.443 40.954 103.971C43.9461 101.917 46.5184 100.026 50.1874 97.2698C55.2373 93.4871 60.233 90.9338 65.3506 88.5561C68.5593 93.325 73.1218 96.3917 76.8855 100.364C75.2473 101.336 74.7058 102.525 73.1489 103.511C70.6984 100.377 67.2054 97.9993 63.9832 94.5679C63.1709 93.7033 61.6817 91.6228 60.7881 92.2847C59.6238 93.1494 61.817 95.0002 62.6429 95.8918C65.7432 99.1747 69.1414 101.566 72.0928 104.66C71.1587 105.997 69.5611 106.51 68.0313 107.632C66.2171 105.281 63.5229 103.201 60.9777 100.282C60.3007 99.5124 59.3801 98.0264 58.5407 98.4992C56.9973 99.3638 61.086 103.241 62.0472 104.214C63.8208 106.011 65.5672 107.416 67.1648 108.429C66.7316 109.428 65.8651 110.347 64.5925 111.198C63.3063 109.685 61.289 108.699 59.6644 107.267C58.0398 105.821 56.9025 103.417 54.777 103.092C53.8699 105.038 56.7807 106.781 58.1887 108.064C59.9352 109.658 61.6681 111.009 63.0761 112.239C61.79 113.09 60.4632 114.143 59.2447 114.657C57.8638 113.292 56.2662 111.779 54.777 110.199C53.3419 108.685 51.9474 106.781 50.1738 106.443C48.8471 107.753 50.6883 108.55 51.5548 109.347C53.4908 111.104 55.6976 114.062 57.6201 115.548C56.6588 116.21 55.6841 116.872 54.7093 117.534C53.4908 117.872 50.0791 111.671 48.6575 113.144C47.412 114.427 51.9609 117.183 52.7191 118.48C42.0507 124.708 31.7613 128.882 22.9342 125.41L22.9071 125.383ZM63.2792 116.116C63.3334 117.17 62.2503 118.007 62.2367 119.047C61.6004 119.182 61.1807 118.21 60.6798 117.669C61.4786 117.494 62.3992 116.643 63.2657 116.116H63.2792ZM61.4244 120.817C61.2213 121.263 60.8964 121.682 60.9235 122.168C59.7863 121.844 58.8521 120.385 57.8232 119.412C58.1887 119.155 58.5542 118.912 58.9333 118.656C59.7863 119.264 60.5173 120.52 61.4244 120.804V120.817ZM60.3143 125.424C58.5949 124.316 57.0108 122.465 55.3321 121.114C55.657 120.898 55.9819 120.682 56.2933 120.452C57.5253 122.317 60.6121 123.411 60.3007 125.424H60.3143ZM59.8133 130.625C57.1733 129.072 54.7905 126.086 52.2046 124.262C52.7462 123.479 52.1776 122.492 53.6126 121.871C56.0496 124.802 60.9776 126.788 59.7998 130.625H59.8133ZM51.4329 125.802C52.692 126.856 53.9105 128.207 55.4268 129.571C57.5388 131.449 60.0841 132.3 59.7186 134.962C58.4189 134.408 57.5659 133.26 56.1038 131.746C55.3321 130.949 53.3013 128.261 52.3536 129.234C51.3111 130.314 54.9394 133.124 55.8059 133.976C57.6472 135.799 58.7844 136.88 60.3684 137.961C60.6798 138.582 60.585 139.123 60.9912 139.771C57.945 137.326 55.0477 134.151 52.1911 130.774C51.812 130.409 51.3923 130.274 50.8914 130.652C50.932 129.017 50.6883 127.329 51.4465 125.816L51.4329 125.802ZM64.1863 151.565C59.8946 148.228 54.6687 143.243 51.6902 137.177C53.7345 138.704 55.3185 140.92 57.241 142.919C59.9758 145.769 63.1438 147.755 64.1728 151.565H64.1863ZM62.0201 145.135C60.1653 143.176 57.9721 141.095 55.9548 138.934C53.9782 136.826 51.6495 134.732 50.8102 132.3C52.6649 133.881 54.3437 135.921 56.2662 137.907C58.6761 140.393 61.817 142.189 62.2503 145.175C62.1555 145.283 62.0878 145.202 62.0201 145.121V145.135ZM146.988 124.735C147.3 126.032 147.232 128.193 147.327 129.977C147.422 131.746 147.489 133.638 147.327 135.043C146.867 139.082 144.971 143.567 143.793 147.985C143.225 150.147 142.439 152.2 141.031 154.335C139.732 156.293 138.039 158.658 136.306 160.184C135.454 160.941 134.235 161.279 133.531 162.076C132.854 162.846 133.301 163.521 132.489 164.413C131.013 166.034 128.224 166.872 126.112 168.155C123.228 169.884 120.859 171.938 118.395 173.208C114.685 175.126 110.163 175.058 106.142 175.477C101.918 175.909 97.7214 175.896 94.5534 174.869C92.0623 174.059 89.517 172.613 86.8364 171.613C83.384 170.33 80.8523 169.587 78.0769 166.237C77.1157 165.075 75.7077 164.278 74.787 163.21C72.1605 160.157 69.8319 155.807 68.0583 152.187C66.718 149.471 65.9192 146.148 65.2965 143.122C64.6737 140.014 63.1167 136.664 62.8731 134.232C62.7106 132.719 63.1168 130.679 63.2792 128.896C63.6989 124.059 64.8903 120.844 67.598 116.224C68.9248 113.941 70.2787 110.347 73.1895 108.361C72.6886 109.861 71.3753 110.739 70.4411 112.063C67.6657 115.994 66.5691 121.614 66.1765 126.316C66.0546 127.761 65.3642 130.071 67.1513 130.72C68.3156 129.734 67.7605 128.099 67.8553 127.005C68.3562 120.804 69.9131 115.481 74.5027 109.712C75.112 108.942 76.1274 108.469 76.6147 107.456C76.8043 106.51 75.3557 106.362 75.3963 106.267C84.0474 98.5262 92.7798 93.5411 101.431 92.3793C102.257 92.2712 103.11 92.3793 103.99 92.2577C109.784 91.5417 115.823 91.5552 121.13 94.1491C127.06 97.0402 133.328 101.85 138.405 108.118C142.751 113.481 145.729 119.669 146.961 124.789L146.988 124.735Z" fill="#0F3187"/>
</svg>
